<mxfile host="app.diagrams.net" agent="Mozilla/5.0 (Windows NT 10.0; Win64; x64) AppleWebKit/537.36 (KHTML, like Gecko) Chrome/127.0.0.0 Safari/537.36 OPR/113.0.0.0" version="24.7.17">
  <diagram name="Pagina-1" id="qD8-IgMIRUxjnWorhRo1">
    <mxGraphModel dx="972" dy="1681" grid="1" gridSize="10" guides="1" tooltips="1" connect="1" arrows="1" fold="1" page="1" pageScale="1" pageWidth="827" pageHeight="1169" math="0" shadow="0">
      <root>
        <mxCell id="0" />
        <mxCell id="1" parent="0" />
        <mxCell id="YjwHPkgiHejPP97CCBkF-1" value="Operatore" style="rounded=0;whiteSpace=wrap;html=1;" vertex="1" parent="1">
          <mxGeometry x="40" y="50" width="80" height="30" as="geometry" />
        </mxCell>
        <mxCell id="YjwHPkgiHejPP97CCBkF-2" value="Professione" style="rhombus;whiteSpace=wrap;html=1;" vertex="1" parent="1">
          <mxGeometry x="160" y="40" width="110" height="50" as="geometry" />
        </mxCell>
        <mxCell id="YjwHPkgiHejPP97CCBkF-3" value="Utente" style="rounded=0;whiteSpace=wrap;html=1;" vertex="1" parent="1">
          <mxGeometry x="304" y="50" width="110" height="30" as="geometry" />
        </mxCell>
        <mxCell id="YjwHPkgiHejPP97CCBkF-28" value="" style="group;pointerEvents=0;align=center;verticalAlign=top;fontFamily=Helvetica;fontSize=12;fontColor=default;fillColor=none;gradientColor=none;" vertex="1" connectable="0" parent="1">
          <mxGeometry x="110" y="80" width="5" height="30" as="geometry" />
        </mxCell>
        <mxCell id="YjwHPkgiHejPP97CCBkF-29" value="" style="endArrow=none;html=1;rounded=0;fontFamily=Helvetica;fontSize=12;fontColor=default;entryX=0;entryY=0;entryDx=0;entryDy=0;" edge="1" parent="YjwHPkgiHejPP97CCBkF-28">
          <mxGeometry width="50" height="50" relative="1" as="geometry">
            <mxPoint x="2.5" as="sourcePoint" />
            <mxPoint x="2.5" y="25" as="targetPoint" />
          </mxGeometry>
        </mxCell>
        <mxCell id="YjwHPkgiHejPP97CCBkF-30" value="" style="ellipse;whiteSpace=wrap;html=1;pointerEvents=0;align=center;verticalAlign=top;fontFamily=Helvetica;fontSize=12;fillColor=#000000;strokeColor=#000000;fontColor=default;" vertex="1" parent="YjwHPkgiHejPP97CCBkF-28">
          <mxGeometry y="25" width="5" height="5" as="geometry" />
        </mxCell>
        <mxCell id="YjwHPkgiHejPP97CCBkF-31" value="IDOperatore" style="text;html=1;align=center;verticalAlign=middle;resizable=0;points=[];autosize=1;strokeColor=none;fillColor=none;fontFamily=Helvetica;fontSize=10;fontColor=default;" vertex="1" parent="1">
          <mxGeometry x="72.5" y="100" width="80" height="30" as="geometry" />
        </mxCell>
        <mxCell id="YjwHPkgiHejPP97CCBkF-35" value="" style="group" vertex="1" connectable="0" parent="1">
          <mxGeometry x="40" y="20" width="5" height="30" as="geometry" />
        </mxCell>
        <mxCell id="YjwHPkgiHejPP97CCBkF-33" value="" style="endArrow=none;html=1;rounded=0;fontFamily=Helvetica;fontSize=12;fontColor=default;entryX=0;entryY=0;entryDx=0;entryDy=0;" edge="1" parent="YjwHPkgiHejPP97CCBkF-35">
          <mxGeometry width="50" height="50" relative="1" as="geometry">
            <mxPoint x="2.5" y="30" as="sourcePoint" />
            <mxPoint x="2.5" y="5" as="targetPoint" />
          </mxGeometry>
        </mxCell>
        <mxCell id="YjwHPkgiHejPP97CCBkF-34" value="" style="ellipse;whiteSpace=wrap;html=1;pointerEvents=0;align=center;verticalAlign=top;fontFamily=Helvetica;fontSize=12;fontColor=default;fillColor=none;gradientColor=none;rotation=-180;" vertex="1" parent="YjwHPkgiHejPP97CCBkF-35">
          <mxGeometry width="5" height="5" as="geometry" />
        </mxCell>
        <mxCell id="YjwHPkgiHejPP97CCBkF-40" value="Tipo" style="text;html=1;align=center;verticalAlign=middle;resizable=0;points=[];autosize=1;strokeColor=none;fillColor=none;fontFamily=Helvetica;fontSize=10;fontColor=default;" vertex="1" parent="1">
          <mxGeometry x="21.5" y="-5" width="40" height="30" as="geometry" />
        </mxCell>
        <mxCell id="YjwHPkgiHejPP97CCBkF-41" value="" style="endArrow=none;html=1;rounded=0;fontFamily=Helvetica;fontSize=12;fontColor=default;exitX=1;exitY=0.5;exitDx=0;exitDy=0;" edge="1" parent="1" source="YjwHPkgiHejPP97CCBkF-1" target="YjwHPkgiHejPP97CCBkF-2">
          <mxGeometry width="50" height="50" relative="1" as="geometry">
            <mxPoint x="230" y="90" as="sourcePoint" />
            <mxPoint x="280" y="40" as="targetPoint" />
          </mxGeometry>
        </mxCell>
        <mxCell id="YjwHPkgiHejPP97CCBkF-42" value="(0, N)" style="text;html=1;align=center;verticalAlign=middle;resizable=0;points=[];autosize=1;strokeColor=none;fillColor=none;fontFamily=Helvetica;fontSize=10;fontColor=default;" vertex="1" parent="1">
          <mxGeometry x="115" y="40" width="50" height="30" as="geometry" />
        </mxCell>
        <mxCell id="YjwHPkgiHejPP97CCBkF-43" value="" style="endArrow=none;html=1;rounded=0;fontFamily=Helvetica;fontSize=12;fontColor=default;entryX=0;entryY=0.5;entryDx=0;entryDy=0;" edge="1" parent="1" source="YjwHPkgiHejPP97CCBkF-2" target="YjwHPkgiHejPP97CCBkF-3">
          <mxGeometry width="50" height="50" relative="1" as="geometry">
            <mxPoint x="230" y="90" as="sourcePoint" />
            <mxPoint x="280" y="40" as="targetPoint" />
          </mxGeometry>
        </mxCell>
        <mxCell id="YjwHPkgiHejPP97CCBkF-44" value="(0, N)" style="text;html=1;align=center;verticalAlign=middle;resizable=0;points=[];autosize=1;strokeColor=none;fillColor=none;fontFamily=Helvetica;fontSize=10;fontColor=default;" vertex="1" parent="1">
          <mxGeometry x="260" y="40" width="50" height="30" as="geometry" />
        </mxCell>
        <mxCell id="YjwHPkgiHejPP97CCBkF-45" value="Email" style="text;html=1;align=center;verticalAlign=middle;resizable=0;points=[];autosize=1;strokeColor=none;fillColor=none;fontFamily=Helvetica;fontSize=10;fontColor=default;" vertex="1" parent="1">
          <mxGeometry x="165" y="100" width="50" height="30" as="geometry" />
        </mxCell>
        <mxCell id="YjwHPkgiHejPP97CCBkF-46" value="DataInizio" style="text;html=1;align=center;verticalAlign=middle;resizable=0;points=[];autosize=1;strokeColor=none;fillColor=none;fontFamily=Helvetica;fontSize=10;fontColor=default;" vertex="1" parent="1">
          <mxGeometry x="147.5" y="-7" width="70" height="30" as="geometry" />
        </mxCell>
        <mxCell id="YjwHPkgiHejPP97CCBkF-47" value="" style="group;pointerEvents=0;align=center;verticalAlign=top;fontFamily=Helvetica;fontSize=12;fontColor=default;fillColor=none;gradientColor=none;" vertex="1" connectable="0" parent="1">
          <mxGeometry x="190" y="80" width="5" height="30" as="geometry" />
        </mxCell>
        <mxCell id="YjwHPkgiHejPP97CCBkF-48" value="" style="endArrow=none;html=1;rounded=0;fontFamily=Helvetica;fontSize=12;fontColor=default;entryX=0;entryY=0;entryDx=0;entryDy=0;" edge="1" parent="YjwHPkgiHejPP97CCBkF-47">
          <mxGeometry width="50" height="50" relative="1" as="geometry">
            <mxPoint x="2.5" as="sourcePoint" />
            <mxPoint x="2.5" y="25" as="targetPoint" />
          </mxGeometry>
        </mxCell>
        <mxCell id="YjwHPkgiHejPP97CCBkF-49" value="" style="ellipse;whiteSpace=wrap;html=1;pointerEvents=0;align=center;verticalAlign=top;fontFamily=Helvetica;fontSize=12;fontColor=default;fillColor=none;gradientColor=none;" vertex="1" parent="YjwHPkgiHejPP97CCBkF-47">
          <mxGeometry y="25" width="5" height="5" as="geometry" />
        </mxCell>
        <mxCell id="YjwHPkgiHejPP97CCBkF-61" value="DataFine" style="text;html=1;align=center;verticalAlign=middle;resizable=0;points=[];autosize=1;strokeColor=none;fillColor=none;fontFamily=Helvetica;fontSize=10;fontColor=default;" vertex="1" parent="1">
          <mxGeometry x="209.5" y="-6" width="60" height="30" as="geometry" />
        </mxCell>
        <mxCell id="YjwHPkgiHejPP97CCBkF-69" value="" style="group" vertex="1" connectable="0" parent="1">
          <mxGeometry x="241" y="77" width="5" height="30" as="geometry" />
        </mxCell>
        <mxCell id="YjwHPkgiHejPP97CCBkF-67" value="" style="endArrow=none;html=1;rounded=0;fontFamily=Helvetica;fontSize=12;fontColor=default;entryX=0;entryY=0;entryDx=0;entryDy=0;" edge="1" parent="YjwHPkgiHejPP97CCBkF-69">
          <mxGeometry width="50" height="50" relative="1" as="geometry">
            <mxPoint x="2.5" as="sourcePoint" />
            <mxPoint x="2.5" y="25" as="targetPoint" />
          </mxGeometry>
        </mxCell>
        <mxCell id="YjwHPkgiHejPP97CCBkF-68" value="" style="ellipse;whiteSpace=wrap;html=1;pointerEvents=0;align=center;verticalAlign=top;fontFamily=Helvetica;fontSize=12;fontColor=default;fillColor=none;gradientColor=none;rotation=0;" vertex="1" parent="YjwHPkgiHejPP97CCBkF-69">
          <mxGeometry y="25" width="5" height="5" as="geometry" />
        </mxCell>
        <mxCell id="YjwHPkgiHejPP97CCBkF-74" value="Ruolo" style="text;html=1;align=center;verticalAlign=middle;resizable=0;points=[];autosize=1;strokeColor=none;fillColor=none;fontFamily=Helvetica;fontSize=10;fontColor=default;" vertex="1" parent="1">
          <mxGeometry x="218.5" y="100" width="50" height="30" as="geometry" />
        </mxCell>
        <mxCell id="YjwHPkgiHejPP97CCBkF-78" value="" style="whiteSpace=wrap;html=1;aspect=fixed;pointerEvents=0;align=center;verticalAlign=top;fontFamily=Helvetica;fontSize=12;fontColor=default;fillColor=none;gradientColor=none;" vertex="1" parent="1">
          <mxGeometry x="NaN" y="NaN" width="20" height="NaN" as="geometry" />
        </mxCell>
        <mxCell id="YjwHPkgiHejPP97CCBkF-81" value="IDUtente" style="text;html=1;align=center;verticalAlign=middle;resizable=0;points=[];autosize=1;strokeColor=none;fillColor=none;fontFamily=Helvetica;fontSize=12;fontColor=default;" vertex="1" parent="1">
          <mxGeometry x="366" y="-3" width="70" height="30" as="geometry" />
        </mxCell>
        <mxCell id="YjwHPkgiHejPP97CCBkF-83" value="" style="group;pointerEvents=0;align=center;verticalAlign=top;fontFamily=Helvetica;fontSize=12;fontColor=default;fillColor=none;gradientColor=none;" vertex="1" connectable="0" parent="1">
          <mxGeometry x="397" y="20" width="5" height="30" as="geometry" />
        </mxCell>
        <mxCell id="YjwHPkgiHejPP97CCBkF-84" value="" style="endArrow=none;html=1;rounded=0;fontFamily=Helvetica;fontSize=12;fontColor=default;entryX=0;entryY=0;entryDx=0;entryDy=0;" edge="1" parent="YjwHPkgiHejPP97CCBkF-83">
          <mxGeometry width="50" height="50" relative="1" as="geometry">
            <mxPoint x="2.5" y="30" as="sourcePoint" />
            <mxPoint x="2.5" y="5" as="targetPoint" />
          </mxGeometry>
        </mxCell>
        <mxCell id="YjwHPkgiHejPP97CCBkF-85" value="" style="ellipse;whiteSpace=wrap;html=1;pointerEvents=0;align=center;verticalAlign=top;fontFamily=Helvetica;fontSize=12;fontColor=default;fillColor=none;gradientColor=none;rotation=-180;" vertex="1" parent="YjwHPkgiHejPP97CCBkF-83">
          <mxGeometry width="5" height="5" as="geometry" />
        </mxCell>
        <mxCell id="YjwHPkgiHejPP97CCBkF-86" value="Indirizzo" style="ellipse;whiteSpace=wrap;html=1;pointerEvents=0;align=center;verticalAlign=top;fontFamily=Helvetica;fontSize=12;fontColor=default;fillColor=none;gradientColor=none;" vertex="1" parent="1">
          <mxGeometry x="292" width="60" height="30" as="geometry" />
        </mxCell>
        <mxCell id="YjwHPkgiHejPP97CCBkF-91" value="" style="endArrow=none;html=1;rounded=0;fontFamily=Helvetica;fontSize=12;fontColor=default;exitX=0.148;exitY=-0.038;exitDx=0;exitDy=0;exitPerimeter=0;entryX=0.505;entryY=1;entryDx=0;entryDy=0;entryPerimeter=0;" edge="1" parent="1" target="YjwHPkgiHejPP97CCBkF-86">
          <mxGeometry width="50" height="50" relative="1" as="geometry">
            <mxPoint x="322.28" y="48.86000000000013" as="sourcePoint" />
            <mxPoint x="324" y="30" as="targetPoint" />
          </mxGeometry>
        </mxCell>
        <mxCell id="YjwHPkgiHejPP97CCBkF-92" value="" style="group;pointerEvents=0;align=center;verticalAlign=top;fontFamily=Helvetica;fontSize=12;fontColor=default;fillColor=none;gradientColor=none;rotation=-15;" vertex="1" connectable="0" parent="1">
          <mxGeometry x="286" y="-15" width="5" height="30" as="geometry" />
        </mxCell>
        <mxCell id="YjwHPkgiHejPP97CCBkF-93" value="" style="endArrow=none;html=1;rounded=0;fontFamily=Helvetica;fontSize=12;fontColor=default;entryX=0;entryY=0;entryDx=0;entryDy=0;" edge="1" parent="YjwHPkgiHejPP97CCBkF-92">
          <mxGeometry width="50" height="50" relative="1" as="geometry">
            <mxPoint x="6" y="29" as="sourcePoint" />
            <mxPoint y="5" as="targetPoint" />
          </mxGeometry>
        </mxCell>
        <mxCell id="YjwHPkgiHejPP97CCBkF-94" value="" style="ellipse;whiteSpace=wrap;html=1;pointerEvents=0;align=center;verticalAlign=top;fontFamily=Helvetica;fontSize=12;fontColor=default;fillColor=none;gradientColor=none;rotation=-195;" vertex="1" parent="YjwHPkgiHejPP97CCBkF-92">
          <mxGeometry x="-3" width="5" height="5" as="geometry" />
        </mxCell>
        <mxCell id="YjwHPkgiHejPP97CCBkF-96" value="Via" style="text;html=1;align=center;verticalAlign=middle;resizable=0;points=[];autosize=1;strokeColor=none;fillColor=none;fontFamily=Helvetica;fontSize=10;fontColor=default;" vertex="1" parent="1">
          <mxGeometry x="256" y="-37" width="40" height="30" as="geometry" />
        </mxCell>
        <mxCell id="YjwHPkgiHejPP97CCBkF-97" value="" style="group;pointerEvents=0;align=center;verticalAlign=top;fontFamily=Helvetica;fontSize=12;fontColor=default;fillColor=none;gradientColor=none;rotation=-5;" vertex="1" connectable="0" parent="1">
          <mxGeometry x="304" y="-28" width="5" height="30" as="geometry" />
        </mxCell>
        <mxCell id="YjwHPkgiHejPP97CCBkF-98" value="" style="endArrow=none;html=1;rounded=0;fontFamily=Helvetica;fontSize=12;fontColor=default;entryX=0;entryY=0;entryDx=0;entryDy=0;" edge="1" parent="YjwHPkgiHejPP97CCBkF-97">
          <mxGeometry width="50" height="50" relative="1" as="geometry">
            <mxPoint x="4" y="30" as="sourcePoint" />
            <mxPoint x="2" y="5" as="targetPoint" />
          </mxGeometry>
        </mxCell>
        <mxCell id="YjwHPkgiHejPP97CCBkF-99" value="" style="ellipse;whiteSpace=wrap;html=1;pointerEvents=0;align=center;verticalAlign=top;fontFamily=Helvetica;fontSize=12;fontColor=default;fillColor=none;gradientColor=none;rotation=-185;" vertex="1" parent="YjwHPkgiHejPP97CCBkF-97">
          <mxGeometry x="-1" width="5" height="5" as="geometry" />
        </mxCell>
        <mxCell id="YjwHPkgiHejPP97CCBkF-100" value="NCivico" style="text;html=1;align=center;verticalAlign=middle;resizable=0;points=[];autosize=1;strokeColor=none;fillColor=none;fontFamily=Helvetica;fontSize=10;fontColor=default;" vertex="1" parent="1">
          <mxGeometry x="268" y="-52" width="60" height="30" as="geometry" />
        </mxCell>
        <mxCell id="YjwHPkgiHejPP97CCBkF-101" value="" style="group;pointerEvents=0;align=center;verticalAlign=top;fontFamily=Helvetica;fontSize=12;fontColor=default;fillColor=none;gradientColor=none;rotation=10;" vertex="1" connectable="0" parent="1">
          <mxGeometry x="330" y="-30" width="5" height="30" as="geometry" />
        </mxCell>
        <mxCell id="YjwHPkgiHejPP97CCBkF-102" value="" style="endArrow=none;html=1;rounded=0;fontFamily=Helvetica;fontSize=12;fontColor=default;entryX=0;entryY=0;entryDx=0;entryDy=0;" edge="1" parent="YjwHPkgiHejPP97CCBkF-101">
          <mxGeometry width="50" height="50" relative="1" as="geometry">
            <mxPoint y="30" as="sourcePoint" />
            <mxPoint x="4" y="5" as="targetPoint" />
          </mxGeometry>
        </mxCell>
        <mxCell id="YjwHPkgiHejPP97CCBkF-103" value="" style="ellipse;whiteSpace=wrap;html=1;pointerEvents=0;align=center;verticalAlign=top;fontFamily=Helvetica;fontSize=12;fontColor=default;fillColor=none;gradientColor=none;rotation=-170;" vertex="1" parent="YjwHPkgiHejPP97CCBkF-101">
          <mxGeometry x="2" width="5" height="5" as="geometry" />
        </mxCell>
        <mxCell id="YjwHPkgiHejPP97CCBkF-104" value="Citta" style="text;html=1;align=center;verticalAlign=middle;resizable=0;points=[];autosize=1;strokeColor=none;fillColor=none;fontFamily=Helvetica;fontSize=10;fontColor=default;" vertex="1" parent="1">
          <mxGeometry x="315" y="-52" width="40" height="30" as="geometry" />
        </mxCell>
        <mxCell id="YjwHPkgiHejPP97CCBkF-106" value="" style="group;pointerEvents=0;align=center;verticalAlign=top;fontFamily=Helvetica;fontSize=12;fontColor=default;fillColor=none;gradientColor=none;rotation=15;" vertex="1" connectable="0" parent="1">
          <mxGeometry x="353" y="-13" width="5" height="30" as="geometry" />
        </mxCell>
        <mxCell id="YjwHPkgiHejPP97CCBkF-107" value="" style="endArrow=none;html=1;rounded=0;fontFamily=Helvetica;fontSize=12;fontColor=default;entryX=0;entryY=0;entryDx=0;entryDy=0;" edge="1" parent="YjwHPkgiHejPP97CCBkF-106">
          <mxGeometry width="50" height="50" relative="1" as="geometry">
            <mxPoint x="-1" y="29" as="sourcePoint" />
            <mxPoint x="5" y="5" as="targetPoint" />
          </mxGeometry>
        </mxCell>
        <mxCell id="YjwHPkgiHejPP97CCBkF-108" value="" style="ellipse;whiteSpace=wrap;html=1;pointerEvents=0;align=center;verticalAlign=top;fontFamily=Helvetica;fontSize=12;fontColor=default;fillColor=none;gradientColor=none;rotation=-165;" vertex="1" parent="YjwHPkgiHejPP97CCBkF-106">
          <mxGeometry x="3" width="5" height="5" as="geometry" />
        </mxCell>
        <mxCell id="YjwHPkgiHejPP97CCBkF-109" value="Provincia" style="text;html=1;align=center;verticalAlign=middle;resizable=0;points=[];autosize=1;strokeColor=none;fillColor=none;fontFamily=Helvetica;fontSize=10;fontColor=default;" vertex="1" parent="1">
          <mxGeometry x="330" y="-35" width="60" height="30" as="geometry" />
        </mxCell>
        <mxCell id="YjwHPkgiHejPP97CCBkF-113" value="" style="group" vertex="1" connectable="0" parent="1">
          <mxGeometry x="320" y="-80" width="5" height="30" as="geometry" />
        </mxCell>
        <mxCell id="YjwHPkgiHejPP97CCBkF-114" value="" style="endArrow=none;html=1;rounded=0;fontFamily=Helvetica;fontSize=12;fontColor=default;entryX=0;entryY=0;entryDx=0;entryDy=0;" edge="1" parent="YjwHPkgiHejPP97CCBkF-113">
          <mxGeometry width="50" height="50" relative="1" as="geometry">
            <mxPoint x="2.5" y="30" as="sourcePoint" />
            <mxPoint x="2.5" y="5" as="targetPoint" />
          </mxGeometry>
        </mxCell>
        <mxCell id="YjwHPkgiHejPP97CCBkF-115" value="" style="whiteSpace=wrap;html=1;aspect=fixed;pointerEvents=0;align=center;verticalAlign=top;fontFamily=Helvetica;fontSize=12;fillColor=#000000;strokeColor=#000000;fillStyle=auto;" vertex="1" parent="YjwHPkgiHejPP97CCBkF-113">
          <mxGeometry width="5" height="5" as="geometry" />
        </mxCell>
        <mxCell id="YjwHPkgiHejPP97CCBkF-117" value="Indirizzo" style="text;html=1;align=center;verticalAlign=middle;resizable=0;points=[];autosize=1;strokeColor=none;fillColor=none;fontFamily=Helvetica;fontSize=10;fontColor=default;" vertex="1" parent="1">
          <mxGeometry x="291" y="-106" width="60" height="30" as="geometry" />
        </mxCell>
        <mxCell id="YjwHPkgiHejPP97CCBkF-121" value="DataNascita" style="text;html=1;align=center;verticalAlign=middle;resizable=0;points=[];autosize=1;strokeColor=none;fillColor=none;fontFamily=Helvetica;fontSize=10;fontColor=default;" vertex="1" parent="1">
          <mxGeometry x="438" y="6" width="80" height="30" as="geometry" />
        </mxCell>
        <mxCell id="YjwHPkgiHejPP97CCBkF-129" value="Telefono" style="text;html=1;align=center;verticalAlign=middle;resizable=0;points=[];autosize=1;strokeColor=none;fillColor=none;fontFamily=Helvetica;fontSize=10;fontColor=default;" vertex="1" parent="1">
          <mxGeometry x="438" y="62" width="60" height="30" as="geometry" />
        </mxCell>
        <mxCell id="YjwHPkgiHejPP97CCBkF-130" value="" style="group;pointerEvents=0;align=center;verticalAlign=top;fontFamily=Helvetica;fontSize=12;fontColor=default;fillColor=none;gradientColor=none;" vertex="1" connectable="0" parent="1">
          <mxGeometry x="199" y="16" width="5" height="30" as="geometry" />
        </mxCell>
        <mxCell id="YjwHPkgiHejPP97CCBkF-131" value="" style="endArrow=none;html=1;rounded=0;fontFamily=Helvetica;fontSize=12;fontColor=default;entryX=0;entryY=0;entryDx=0;entryDy=0;" edge="1" parent="YjwHPkgiHejPP97CCBkF-130">
          <mxGeometry width="50" height="50" relative="1" as="geometry">
            <mxPoint x="2.5" y="30" as="sourcePoint" />
            <mxPoint x="2.5" y="5" as="targetPoint" />
          </mxGeometry>
        </mxCell>
        <mxCell id="YjwHPkgiHejPP97CCBkF-132" value="" style="ellipse;whiteSpace=wrap;html=1;pointerEvents=0;align=center;verticalAlign=top;fontFamily=Helvetica;fontSize=12;fontColor=default;fillColor=none;gradientColor=none;rotation=-180;" vertex="1" parent="YjwHPkgiHejPP97CCBkF-130">
          <mxGeometry width="5" height="5" as="geometry" />
        </mxCell>
        <mxCell id="YjwHPkgiHejPP97CCBkF-133" value="" style="group;pointerEvents=0;align=center;verticalAlign=top;fontFamily=Helvetica;fontSize=12;fontColor=default;fillColor=none;gradientColor=none;" vertex="1" connectable="0" parent="1">
          <mxGeometry x="230" y="18" width="5" height="30" as="geometry" />
        </mxCell>
        <mxCell id="YjwHPkgiHejPP97CCBkF-134" value="" style="endArrow=none;html=1;rounded=0;fontFamily=Helvetica;fontSize=12;fontColor=default;entryX=0;entryY=0;entryDx=0;entryDy=0;" edge="1" parent="YjwHPkgiHejPP97CCBkF-133">
          <mxGeometry width="50" height="50" relative="1" as="geometry">
            <mxPoint x="2.5" y="30" as="sourcePoint" />
            <mxPoint x="2.5" y="5" as="targetPoint" />
          </mxGeometry>
        </mxCell>
        <mxCell id="YjwHPkgiHejPP97CCBkF-135" value="" style="ellipse;whiteSpace=wrap;html=1;pointerEvents=0;align=center;verticalAlign=top;fontFamily=Helvetica;fontSize=12;fontColor=default;fillColor=none;gradientColor=none;rotation=-180;" vertex="1" parent="YjwHPkgiHejPP97CCBkF-133">
          <mxGeometry width="5" height="5" as="geometry" />
        </mxCell>
        <mxCell id="YjwHPkgiHejPP97CCBkF-139" value="" style="group;rotation=-90;pointerEvents=0;align=center;verticalAlign=top;fontFamily=Helvetica;fontSize=12;fontColor=default;fillColor=none;gradientColor=none;" vertex="1" connectable="0" parent="YjwHPkgiHejPP97CCBkF-133">
          <mxGeometry width="5" height="30" as="geometry" />
        </mxCell>
        <mxCell id="YjwHPkgiHejPP97CCBkF-140" value="" style="endArrow=none;html=1;rounded=0;fontFamily=Helvetica;fontSize=12;fontColor=default;entryX=0;entryY=0;entryDx=0;entryDy=0;" edge="1" parent="YjwHPkgiHejPP97CCBkF-139">
          <mxGeometry width="50" height="50" relative="1" as="geometry">
            <mxPoint x="-12" y="15" as="sourcePoint" />
            <mxPoint x="13" y="15" as="targetPoint" />
          </mxGeometry>
        </mxCell>
        <mxCell id="YjwHPkgiHejPP97CCBkF-141" value="" style="ellipse;whiteSpace=wrap;html=1;pointerEvents=0;align=center;verticalAlign=top;fontFamily=Helvetica;fontSize=12;fillColor=#000000;strokeColor=#000000;rotation=-90;fontColor=default;" vertex="1" parent="YjwHPkgiHejPP97CCBkF-139">
          <mxGeometry x="13" y="13" width="5" height="5" as="geometry" />
        </mxCell>
        <mxCell id="YjwHPkgiHejPP97CCBkF-142" value="" style="endArrow=none;html=1;rounded=0;fontFamily=Helvetica;fontSize=12;fontColor=default;" edge="1" parent="1">
          <mxGeometry width="50" height="50" relative="1" as="geometry">
            <mxPoint x="190" y="33" as="sourcePoint" />
            <mxPoint x="220" y="33" as="targetPoint" />
          </mxGeometry>
        </mxCell>
        <mxCell id="YjwHPkgiHejPP97CCBkF-143" value="" style="group;direction=east;rotation=-90;pointerEvents=0;align=center;verticalAlign=top;fontFamily=Helvetica;fontSize=12;fontColor=default;fillColor=none;gradientColor=none;" vertex="1" connectable="0" parent="1">
          <mxGeometry x="426" y="38" width="5" height="30" as="geometry" />
        </mxCell>
        <mxCell id="YjwHPkgiHejPP97CCBkF-144" value="" style="endArrow=none;html=1;rounded=0;fontFamily=Helvetica;fontSize=12;fontColor=default;entryX=0;entryY=0;entryDx=0;entryDy=0;" edge="1" parent="YjwHPkgiHejPP97CCBkF-143">
          <mxGeometry width="50" height="50" relative="1" as="geometry">
            <mxPoint x="-12" y="15" as="sourcePoint" />
            <mxPoint x="13" y="15" as="targetPoint" />
          </mxGeometry>
        </mxCell>
        <mxCell id="YjwHPkgiHejPP97CCBkF-145" value="" style="ellipse;whiteSpace=wrap;html=1;pointerEvents=0;align=center;verticalAlign=top;fontFamily=Helvetica;fontSize=12;fontColor=default;fillColor=none;gradientColor=none;rotation=-90;" vertex="1" parent="YjwHPkgiHejPP97CCBkF-143">
          <mxGeometry x="13" y="13" width="5" height="5" as="geometry" />
        </mxCell>
        <mxCell id="YjwHPkgiHejPP97CCBkF-147" value="" style="group;direction=east;rotation=-90;pointerEvents=0;align=center;verticalAlign=top;fontFamily=Helvetica;fontSize=12;fontColor=default;fillColor=none;gradientColor=none;" vertex="1" connectable="0" parent="1">
          <mxGeometry x="426" y="64" width="5" height="30" as="geometry" />
        </mxCell>
        <mxCell id="YjwHPkgiHejPP97CCBkF-148" value="" style="endArrow=none;html=1;rounded=0;fontFamily=Helvetica;fontSize=12;fontColor=default;entryX=0;entryY=0;entryDx=0;entryDy=0;" edge="1" parent="YjwHPkgiHejPP97CCBkF-147">
          <mxGeometry width="50" height="50" relative="1" as="geometry">
            <mxPoint x="-12" y="15" as="sourcePoint" />
            <mxPoint x="13" y="15" as="targetPoint" />
          </mxGeometry>
        </mxCell>
        <mxCell id="YjwHPkgiHejPP97CCBkF-149" value="" style="ellipse;whiteSpace=wrap;html=1;pointerEvents=0;align=center;verticalAlign=top;fontFamily=Helvetica;fontSize=12;fontColor=default;fillColor=none;gradientColor=none;rotation=-90;" vertex="1" parent="YjwHPkgiHejPP97CCBkF-147">
          <mxGeometry x="13" y="13" width="5" height="5" as="geometry" />
        </mxCell>
        <mxCell id="YjwHPkgiHejPP97CCBkF-150" value="" style="shape=flexArrow;endArrow=classic;html=1;rounded=0;fontFamily=Helvetica;fontSize=12;fontColor=default;entryX=0.691;entryY=1;entryDx=0;entryDy=0;entryPerimeter=0;labelBackgroundColor=#000000;fillColor=#000000;" edge="1" parent="1" target="YjwHPkgiHejPP97CCBkF-3">
          <mxGeometry width="50" height="50" relative="1" as="geometry">
            <mxPoint x="380" y="120" as="sourcePoint" />
            <mxPoint x="340" y="80" as="targetPoint" />
          </mxGeometry>
        </mxCell>
        <mxCell id="YjwHPkgiHejPP97CCBkF-151" value="" style="shape=curlyBracket;whiteSpace=wrap;html=1;rounded=1;labelPosition=left;verticalLabelPosition=middle;align=right;verticalAlign=middle;pointerEvents=0;fontFamily=Helvetica;fontSize=12;fontColor=default;fillColor=none;gradientColor=none;rotation=90;" vertex="1" parent="1">
          <mxGeometry x="305" y="-106" width="20" height="120" as="geometry" />
        </mxCell>
        <mxCell id="YjwHPkgiHejPP97CCBkF-153" value="" style="shape=partialRectangle;whiteSpace=wrap;html=1;bottom=1;right=1;left=1;top=0;fillColor=none;routingCenterX=-0.5;pointerEvents=0;align=center;verticalAlign=top;fontFamily=Helvetica;fontSize=12;fontColor=default;rotation=-180;" vertex="1" parent="1">
          <mxGeometry x="318" y="120" width="125" height="30" as="geometry" />
        </mxCell>
        <mxCell id="YjwHPkgiHejPP97CCBkF-154" value="" style="group;pointerEvents=0;align=center;verticalAlign=top;fontFamily=Helvetica;fontSize=12;fontColor=default;fillColor=none;gradientColor=none;rotation=60;" vertex="1" connectable="0" parent="1">
          <mxGeometry x="432" y="20" width="16" height="60" as="geometry" />
        </mxCell>
        <mxCell id="YjwHPkgiHejPP97CCBkF-155" value="" style="endArrow=none;html=1;rounded=0;fontFamily=Helvetica;fontSize=12;fontColor=default;entryX=0;entryY=0;entryDx=0;entryDy=0;" edge="1" parent="YjwHPkgiHejPP97CCBkF-154">
          <mxGeometry width="50" height="50" relative="1" as="geometry">
            <mxPoint x="-10" y="23" as="sourcePoint" />
            <mxPoint x="11" y="10" as="targetPoint" />
          </mxGeometry>
        </mxCell>
        <mxCell id="YjwHPkgiHejPP97CCBkF-156" value="" style="ellipse;whiteSpace=wrap;html=1;pointerEvents=0;align=center;verticalAlign=top;fontFamily=Helvetica;fontSize=12;fontColor=default;fillColor=none;gradientColor=none;rotation=-120;" vertex="1" parent="YjwHPkgiHejPP97CCBkF-154">
          <mxGeometry x="11" y="6" width="5" height="5" as="geometry" />
        </mxCell>
        <mxCell id="YjwHPkgiHejPP97CCBkF-157" value="" style="endArrow=none;html=1;rounded=0;fontFamily=Helvetica;fontSize=12;fontColor=default;" edge="1" parent="1">
          <mxGeometry width="50" height="50" relative="1" as="geometry">
            <mxPoint x="410" y="50" as="sourcePoint" />
            <mxPoint x="427" y="40" as="targetPoint" />
          </mxGeometry>
        </mxCell>
        <mxCell id="YjwHPkgiHejPP97CCBkF-125" value="Email" style="text;html=1;align=center;verticalAlign=middle;resizable=0;points=[];autosize=1;strokeColor=none;fillColor=none;fontFamily=Helvetica;fontSize=10;fontColor=default;" vertex="1" parent="1">
          <mxGeometry x="443" y="40" width="50" height="30" as="geometry" />
        </mxCell>
        <mxCell id="YjwHPkgiHejPP97CCBkF-158" value="Cittadino" style="rounded=0;whiteSpace=wrap;html=1;pointerEvents=0;align=center;verticalAlign=middle;fontFamily=Helvetica;fontSize=12;fontColor=default;fillColor=none;gradientColor=none;" vertex="1" parent="1">
          <mxGeometry x="285" y="150" width="66" height="20" as="geometry" />
        </mxCell>
        <mxCell id="YjwHPkgiHejPP97CCBkF-159" value="SuperAdmin" style="rounded=0;whiteSpace=wrap;html=1;pointerEvents=0;align=center;verticalAlign=middle;fontFamily=Helvetica;fontSize=12;fontColor=default;fillColor=none;gradientColor=none;" vertex="1" parent="1">
          <mxGeometry x="407" y="150" width="73" height="20" as="geometry" />
        </mxCell>
        <mxCell id="YjwHPkgiHejPP97CCBkF-160" value="" style="group;pointerEvents=0;align=center;verticalAlign=top;fontFamily=Helvetica;fontSize=12;fontColor=default;fillColor=none;gradientColor=none;" vertex="1" connectable="0" parent="1">
          <mxGeometry x="282.5" y="158" width="5" height="30" as="geometry" />
        </mxCell>
        <mxCell id="YjwHPkgiHejPP97CCBkF-161" value="" style="endArrow=none;html=1;rounded=0;fontFamily=Helvetica;fontSize=12;fontColor=default;entryX=0;entryY=0;entryDx=0;entryDy=0;" edge="1" parent="YjwHPkgiHejPP97CCBkF-160">
          <mxGeometry width="50" height="50" relative="1" as="geometry">
            <mxPoint x="2.5" as="sourcePoint" />
            <mxPoint x="2.5" y="25" as="targetPoint" />
          </mxGeometry>
        </mxCell>
        <mxCell id="YjwHPkgiHejPP97CCBkF-162" value="" style="ellipse;whiteSpace=wrap;html=1;pointerEvents=0;align=center;verticalAlign=top;fontFamily=Helvetica;fontSize=12;fontColor=default;fillColor=none;gradientColor=none;" vertex="1" parent="YjwHPkgiHejPP97CCBkF-160">
          <mxGeometry y="25" width="5" height="5" as="geometry" />
        </mxCell>
        <mxCell id="YjwHPkgiHejPP97CCBkF-163" value="CI" style="text;html=1;align=center;verticalAlign=middle;resizable=0;points=[];autosize=1;strokeColor=none;fillColor=none;fontFamily=Helvetica;fontSize=10;fontColor=default;" vertex="1" parent="1">
          <mxGeometry x="269" y="180" width="30" height="30" as="geometry" />
        </mxCell>
        <mxCell id="YjwHPkgiHejPP97CCBkF-171" value="" style="group;direction=east;rotation=-90;pointerEvents=0;align=center;verticalAlign=top;fontFamily=Helvetica;fontSize=12;fontColor=default;fillColor=none;gradientColor=none;" vertex="1" connectable="0" parent="1">
          <mxGeometry x="480" y="135" width="5" height="30" as="geometry" />
        </mxCell>
        <mxCell id="YjwHPkgiHejPP97CCBkF-172" value="" style="endArrow=none;html=1;rounded=0;fontFamily=Helvetica;fontSize=12;fontColor=default;entryX=0;entryY=0;entryDx=0;entryDy=0;" edge="1" parent="YjwHPkgiHejPP97CCBkF-171">
          <mxGeometry width="50" height="50" relative="1" as="geometry">
            <mxPoint x="-12" y="15" as="sourcePoint" />
            <mxPoint x="13" y="15" as="targetPoint" />
          </mxGeometry>
        </mxCell>
        <mxCell id="YjwHPkgiHejPP97CCBkF-173" value="" style="ellipse;whiteSpace=wrap;html=1;pointerEvents=0;align=center;verticalAlign=top;fontFamily=Helvetica;fontSize=12;fontColor=default;fillColor=none;gradientColor=none;rotation=-90;" vertex="1" parent="YjwHPkgiHejPP97CCBkF-171">
          <mxGeometry x="13" y="13" width="5" height="5" as="geometry" />
        </mxCell>
        <mxCell id="YjwHPkgiHejPP97CCBkF-174" value="Ruolo" style="text;html=1;align=center;verticalAlign=middle;resizable=0;points=[];autosize=1;strokeColor=none;fillColor=none;fontFamily=Helvetica;fontSize=10;fontColor=default;" vertex="1" parent="1">
          <mxGeometry x="487" y="128" width="50" height="30" as="geometry" />
        </mxCell>
        <mxCell id="YjwHPkgiHejPP97CCBkF-175" value="" style="group;direction=east;rotation=-90;pointerEvents=0;align=center;verticalAlign=top;fontFamily=Helvetica;fontSize=12;fontColor=default;fillColor=none;gradientColor=none;" vertex="1" connectable="0" parent="1">
          <mxGeometry x="492" y="146" width="5" height="30" as="geometry" />
        </mxCell>
        <mxCell id="YjwHPkgiHejPP97CCBkF-176" value="" style="endArrow=none;html=1;rounded=0;fontFamily=Helvetica;fontSize=12;fontColor=default;entryX=0;entryY=0;entryDx=0;entryDy=0;" edge="1" parent="YjwHPkgiHejPP97CCBkF-175">
          <mxGeometry width="50" height="50" relative="1" as="geometry">
            <mxPoint x="-12" y="15" as="sourcePoint" />
            <mxPoint x="13" y="15" as="targetPoint" />
          </mxGeometry>
        </mxCell>
        <mxCell id="YjwHPkgiHejPP97CCBkF-177" value="" style="ellipse;whiteSpace=wrap;html=1;pointerEvents=0;align=center;verticalAlign=top;fontFamily=Helvetica;fontSize=12;fontColor=default;fillColor=none;gradientColor=none;rotation=-90;" vertex="1" parent="YjwHPkgiHejPP97CCBkF-175">
          <mxGeometry x="13" y="13" width="5" height="5" as="geometry" />
        </mxCell>
        <mxCell id="YjwHPkgiHejPP97CCBkF-178" value="DataAssegnazioneRuolo" style="text;html=1;align=center;verticalAlign=middle;resizable=0;points=[];autosize=1;strokeColor=none;fillColor=none;fontFamily=Helvetica;fontSize=10;fontColor=default;" vertex="1" parent="1">
          <mxGeometry x="503" y="145" width="130" height="30" as="geometry" />
        </mxCell>
        <mxCell id="YjwHPkgiHejPP97CCBkF-182" value="" style="group;pointerEvents=0;align=center;verticalAlign=top;fontFamily=Helvetica;fontSize=12;fontColor=default;fillColor=none;gradientColor=none;" vertex="1" connectable="0" parent="1">
          <mxGeometry x="404.5" y="159" width="5" height="30" as="geometry" />
        </mxCell>
        <mxCell id="YjwHPkgiHejPP97CCBkF-183" value="" style="endArrow=none;html=1;rounded=0;fontFamily=Helvetica;fontSize=12;fontColor=default;entryX=0;entryY=0;entryDx=0;entryDy=0;" edge="1" parent="YjwHPkgiHejPP97CCBkF-182">
          <mxGeometry width="50" height="50" relative="1" as="geometry">
            <mxPoint x="2.5" as="sourcePoint" />
            <mxPoint x="2.5" y="25" as="targetPoint" />
          </mxGeometry>
        </mxCell>
        <mxCell id="YjwHPkgiHejPP97CCBkF-184" value="" style="ellipse;whiteSpace=wrap;html=1;pointerEvents=0;align=center;verticalAlign=top;fontFamily=Helvetica;fontSize=12;fontColor=default;fillColor=none;gradientColor=none;" vertex="1" parent="YjwHPkgiHejPP97CCBkF-182">
          <mxGeometry y="25" width="5" height="5" as="geometry" />
        </mxCell>
        <mxCell id="YjwHPkgiHejPP97CCBkF-185" value="UltimoAccesso" style="text;html=1;align=center;verticalAlign=middle;resizable=0;points=[];autosize=1;strokeColor=none;fillColor=none;fontFamily=Helvetica;fontSize=10;fontColor=default;" vertex="1" parent="1">
          <mxGeometry x="364" y="181" width="90" height="30" as="geometry" />
        </mxCell>
        <mxCell id="YjwHPkgiHejPP97CCBkF-186" value="" style="group;pointerEvents=0;align=center;verticalAlign=top;fontFamily=Helvetica;fontSize=12;fontColor=default;fillColor=none;gradientColor=none;" vertex="1" connectable="0" parent="1">
          <mxGeometry x="460" y="170" width="5" height="30" as="geometry" />
        </mxCell>
        <mxCell id="YjwHPkgiHejPP97CCBkF-187" value="" style="endArrow=none;html=1;rounded=0;fontFamily=Helvetica;fontSize=12;fontColor=default;entryX=0;entryY=0;entryDx=0;entryDy=0;" edge="1" parent="YjwHPkgiHejPP97CCBkF-186">
          <mxGeometry width="50" height="50" relative="1" as="geometry">
            <mxPoint x="2.5" as="sourcePoint" />
            <mxPoint x="2.5" y="25" as="targetPoint" />
          </mxGeometry>
        </mxCell>
        <mxCell id="YjwHPkgiHejPP97CCBkF-188" value="" style="ellipse;whiteSpace=wrap;html=1;pointerEvents=0;align=center;verticalAlign=top;fontFamily=Helvetica;fontSize=12;fontColor=default;fillColor=none;gradientColor=none;" vertex="1" parent="YjwHPkgiHejPP97CCBkF-186">
          <mxGeometry y="25" width="5" height="5" as="geometry" />
        </mxCell>
        <mxCell id="YjwHPkgiHejPP97CCBkF-189" value="LogAttivita" style="text;html=1;align=center;verticalAlign=middle;resizable=0;points=[];autosize=1;strokeColor=none;fillColor=none;fontFamily=Helvetica;fontSize=10;fontColor=default;" vertex="1" parent="1">
          <mxGeometry x="442" y="191" width="70" height="30" as="geometry" />
        </mxCell>
        <mxCell id="YjwHPkgiHejPP97CCBkF-190" value="" style="group;pointerEvents=0;align=center;verticalAlign=top;fontFamily=Helvetica;fontSize=12;fontColor=default;fillColor=none;gradientColor=none;rotation=-45;" vertex="1" connectable="0" parent="1">
          <mxGeometry x="488" y="166" width="5" height="30" as="geometry" />
        </mxCell>
        <mxCell id="YjwHPkgiHejPP97CCBkF-191" value="" style="endArrow=none;html=1;rounded=0;fontFamily=Helvetica;fontSize=12;fontColor=default;entryX=0;entryY=0;entryDx=0;entryDy=0;" edge="1" parent="YjwHPkgiHejPP97CCBkF-190">
          <mxGeometry width="50" height="50" relative="1" as="geometry">
            <mxPoint x="-8" y="4" as="sourcePoint" />
            <mxPoint x="10" y="22" as="targetPoint" />
          </mxGeometry>
        </mxCell>
        <mxCell id="YjwHPkgiHejPP97CCBkF-192" value="" style="ellipse;whiteSpace=wrap;html=1;pointerEvents=0;align=center;verticalAlign=top;fontFamily=Helvetica;fontSize=12;fontColor=default;fillColor=none;gradientColor=none;rotation=-45;" vertex="1" parent="YjwHPkgiHejPP97CCBkF-190">
          <mxGeometry x="9" y="21" width="5" height="5" as="geometry" />
        </mxCell>
        <mxCell id="YjwHPkgiHejPP97CCBkF-193" value="StatoAccount" style="text;html=1;align=center;verticalAlign=middle;resizable=0;points=[];autosize=1;strokeColor=none;fillColor=none;fontFamily=Helvetica;fontSize=10;fontColor=default;" vertex="1" parent="1">
          <mxGeometry x="495" y="175" width="80" height="30" as="geometry" />
        </mxCell>
        <mxCell id="YjwHPkgiHejPP97CCBkF-194" value="Citta" style="rounded=0;whiteSpace=wrap;html=1;" vertex="1" parent="1">
          <mxGeometry x="40" y="280" width="80" height="30" as="geometry" />
        </mxCell>
        <mxCell id="YjwHPkgiHejPP97CCBkF-195" value="" style="group;pointerEvents=0;align=center;verticalAlign=top;fontFamily=Helvetica;fontSize=12;fontColor=default;fillColor=none;gradientColor=none;" vertex="1" connectable="0" parent="1">
          <mxGeometry x="42" y="250" width="5" height="30" as="geometry" />
        </mxCell>
        <mxCell id="YjwHPkgiHejPP97CCBkF-196" value="" style="endArrow=none;html=1;rounded=0;fontFamily=Helvetica;fontSize=12;fontColor=default;entryX=0;entryY=0;entryDx=0;entryDy=0;" edge="1" parent="YjwHPkgiHejPP97CCBkF-195">
          <mxGeometry width="50" height="50" relative="1" as="geometry">
            <mxPoint x="2.5" y="30" as="sourcePoint" />
            <mxPoint x="2.5" y="5" as="targetPoint" />
          </mxGeometry>
        </mxCell>
        <mxCell id="YjwHPkgiHejPP97CCBkF-197" value="" style="ellipse;whiteSpace=wrap;html=1;pointerEvents=0;align=center;verticalAlign=top;fontFamily=Helvetica;fontSize=12;fillColor=#000000;strokeColor=#000000;fontColor=default;rotation=-180;" vertex="1" parent="YjwHPkgiHejPP97CCBkF-195">
          <mxGeometry width="5" height="5" as="geometry" />
        </mxCell>
        <mxCell id="YjwHPkgiHejPP97CCBkF-198" value="IDCitta" style="text;html=1;align=center;verticalAlign=middle;resizable=0;points=[];autosize=1;strokeColor=none;fillColor=none;fontFamily=Helvetica;fontSize=10;fontColor=default;" vertex="1" parent="1">
          <mxGeometry x="20.5" y="225" width="50" height="30" as="geometry" />
        </mxCell>
        <mxCell id="YjwHPkgiHejPP97CCBkF-199" value="" style="group;pointerEvents=0;align=center;verticalAlign=top;fontFamily=Helvetica;fontSize=12;fontColor=default;fillColor=none;gradientColor=none;" vertex="1" connectable="0" parent="1">
          <mxGeometry x="80" y="250" width="5" height="30" as="geometry" />
        </mxCell>
        <mxCell id="YjwHPkgiHejPP97CCBkF-200" value="" style="endArrow=none;html=1;rounded=0;fontFamily=Helvetica;fontSize=12;fontColor=default;entryX=0;entryY=0;entryDx=0;entryDy=0;" edge="1" parent="YjwHPkgiHejPP97CCBkF-199">
          <mxGeometry width="50" height="50" relative="1" as="geometry">
            <mxPoint x="2.5" y="30" as="sourcePoint" />
            <mxPoint x="2.5" y="5" as="targetPoint" />
          </mxGeometry>
        </mxCell>
        <mxCell id="YjwHPkgiHejPP97CCBkF-201" value="" style="ellipse;whiteSpace=wrap;html=1;pointerEvents=0;align=center;verticalAlign=top;fontFamily=Helvetica;fontSize=12;fontColor=default;fillColor=none;gradientColor=none;rotation=-180;" vertex="1" parent="YjwHPkgiHejPP97CCBkF-199">
          <mxGeometry width="5" height="5" as="geometry" />
        </mxCell>
        <mxCell id="YjwHPkgiHejPP97CCBkF-202" value="Nome" style="text;html=1;align=center;verticalAlign=middle;resizable=0;points=[];autosize=1;strokeColor=none;fillColor=none;fontFamily=Helvetica;fontSize=10;fontColor=default;" vertex="1" parent="1">
          <mxGeometry x="58" y="227" width="50" height="30" as="geometry" />
        </mxCell>
        <mxCell id="YjwHPkgiHejPP97CCBkF-203" value="" style="group;pointerEvents=0;align=center;verticalAlign=top;fontFamily=Helvetica;fontSize=12;fontColor=default;fillColor=none;gradientColor=none;" vertex="1" connectable="0" parent="1">
          <mxGeometry x="110" y="250" width="5" height="30" as="geometry" />
        </mxCell>
        <mxCell id="YjwHPkgiHejPP97CCBkF-204" value="" style="endArrow=none;html=1;rounded=0;fontFamily=Helvetica;fontSize=12;fontColor=default;entryX=0;entryY=0;entryDx=0;entryDy=0;" edge="1" parent="YjwHPkgiHejPP97CCBkF-203">
          <mxGeometry width="50" height="50" relative="1" as="geometry">
            <mxPoint x="2.5" y="30" as="sourcePoint" />
            <mxPoint x="2.5" y="5" as="targetPoint" />
          </mxGeometry>
        </mxCell>
        <mxCell id="YjwHPkgiHejPP97CCBkF-205" value="" style="ellipse;whiteSpace=wrap;html=1;pointerEvents=0;align=center;verticalAlign=top;fontFamily=Helvetica;fontSize=12;fontColor=default;fillColor=none;gradientColor=none;rotation=-180;" vertex="1" parent="YjwHPkgiHejPP97CCBkF-203">
          <mxGeometry width="5" height="5" as="geometry" />
        </mxCell>
        <mxCell id="YjwHPkgiHejPP97CCBkF-206" value="Regione" style="text;html=1;align=center;verticalAlign=middle;resizable=0;points=[];autosize=1;strokeColor=none;fillColor=none;fontFamily=Helvetica;fontSize=10;fontColor=default;" vertex="1" parent="1">
          <mxGeometry x="95.5" y="227" width="60" height="30" as="geometry" />
        </mxCell>
        <mxCell id="YjwHPkgiHejPP97CCBkF-214" value="Risorsa&lt;div&gt;Pubblica&lt;/div&gt;" style="rounded=0;whiteSpace=wrap;html=1;" vertex="1" parent="1">
          <mxGeometry x="184" y="383" width="80" height="30" as="geometry" />
        </mxCell>
        <mxCell id="YjwHPkgiHejPP97CCBkF-215" value="" style="group;pointerEvents=0;align=center;verticalAlign=top;fontFamily=Helvetica;fontSize=12;fontColor=default;fillColor=none;gradientColor=none;" vertex="1" connectable="0" parent="1">
          <mxGeometry x="181.5" y="365" width="5" height="30" as="geometry" />
        </mxCell>
        <mxCell id="YjwHPkgiHejPP97CCBkF-216" value="" style="endArrow=none;html=1;rounded=0;fontFamily=Helvetica;fontSize=12;fontColor=default;entryX=0;entryY=0;entryDx=0;entryDy=0;" edge="1" parent="YjwHPkgiHejPP97CCBkF-215">
          <mxGeometry width="50" height="50" relative="1" as="geometry">
            <mxPoint x="2.5" y="30" as="sourcePoint" />
            <mxPoint x="2.5" y="5" as="targetPoint" />
          </mxGeometry>
        </mxCell>
        <mxCell id="YjwHPkgiHejPP97CCBkF-217" value="" style="ellipse;whiteSpace=wrap;html=1;pointerEvents=0;align=center;verticalAlign=top;fontFamily=Helvetica;fontSize=12;fillColor=#000000;strokeColor=#000000;fontColor=default;rotation=-180;" vertex="1" parent="YjwHPkgiHejPP97CCBkF-215">
          <mxGeometry width="5" height="5" as="geometry" />
        </mxCell>
        <mxCell id="YjwHPkgiHejPP97CCBkF-218" value="IDRisorsaPubblica" style="text;html=1;align=center;verticalAlign=middle;resizable=0;points=[];autosize=1;strokeColor=none;fillColor=none;fontFamily=Helvetica;fontSize=10;fontColor=default;" vertex="1" parent="1">
          <mxGeometry x="128.5" y="342" width="110" height="30" as="geometry" />
        </mxCell>
        <mxCell id="YjwHPkgiHejPP97CCBkF-219" value="" style="group;pointerEvents=0;align=center;verticalAlign=top;fontFamily=Helvetica;fontSize=12;fontColor=default;fillColor=none;gradientColor=none;" vertex="1" connectable="0" parent="1">
          <mxGeometry x="261.5" y="365" width="5" height="30" as="geometry" />
        </mxCell>
        <mxCell id="YjwHPkgiHejPP97CCBkF-220" value="" style="endArrow=none;html=1;rounded=0;fontFamily=Helvetica;fontSize=12;fontColor=default;entryX=0;entryY=0;entryDx=0;entryDy=0;" edge="1" parent="YjwHPkgiHejPP97CCBkF-219">
          <mxGeometry width="50" height="50" relative="1" as="geometry">
            <mxPoint x="2.5" y="30" as="sourcePoint" />
            <mxPoint x="2.5" y="5" as="targetPoint" />
          </mxGeometry>
        </mxCell>
        <mxCell id="YjwHPkgiHejPP97CCBkF-221" value="" style="ellipse;whiteSpace=wrap;html=1;pointerEvents=0;align=center;verticalAlign=top;fontFamily=Helvetica;fontSize=12;fontColor=default;fillColor=none;gradientColor=none;rotation=-180;" vertex="1" parent="YjwHPkgiHejPP97CCBkF-219">
          <mxGeometry width="5" height="5" as="geometry" />
        </mxCell>
        <mxCell id="YjwHPkgiHejPP97CCBkF-222" value="Tipo" style="text;html=1;align=center;verticalAlign=middle;resizable=0;points=[];autosize=1;strokeColor=none;fillColor=none;fontFamily=Helvetica;fontSize=10;fontColor=default;" vertex="1" parent="1">
          <mxGeometry x="242" y="341" width="40" height="30" as="geometry" />
        </mxCell>
        <mxCell id="YjwHPkgiHejPP97CCBkF-231" value="&lt;font style=&quot;font-size: 10px;&quot;&gt;Spesa&lt;/font&gt;&lt;div style=&quot;font-size: 10px;&quot;&gt;&lt;font style=&quot;font-size: 10px;&quot;&gt;Pubblica&lt;/font&gt;&lt;/div&gt;" style="rhombus;whiteSpace=wrap;html=1;pointerEvents=0;align=center;verticalAlign=top;fontFamily=Helvetica;fontSize=12;fontColor=default;fillColor=none;gradientColor=none;" vertex="1" parent="1">
          <mxGeometry x="363" y="316" width="100" height="40" as="geometry" />
        </mxCell>
        <mxCell id="YjwHPkgiHejPP97CCBkF-232" value="" style="endArrow=none;html=1;rounded=0;fontFamily=Helvetica;fontSize=12;fontColor=default;exitX=0;exitY=0;exitDx=0;exitDy=0;" edge="1" parent="1" source="YjwHPkgiHejPP97CCBkF-231">
          <mxGeometry width="50" height="50" relative="1" as="geometry">
            <mxPoint x="250" y="400" as="sourcePoint" />
            <mxPoint x="80" y="326" as="targetPoint" />
            <Array as="points">
              <mxPoint x="80" y="326" />
            </Array>
          </mxGeometry>
        </mxCell>
        <mxCell id="YjwHPkgiHejPP97CCBkF-233" value="" style="endArrow=none;html=1;rounded=0;fontFamily=Helvetica;fontSize=12;fontColor=default;entryX=0;entryY=1;entryDx=0;entryDy=0;exitX=0.995;exitY=0.566;exitDx=0;exitDy=0;exitPerimeter=0;" edge="1" parent="1" source="YjwHPkgiHejPP97CCBkF-214" target="YjwHPkgiHejPP97CCBkF-231">
          <mxGeometry width="50" height="50" relative="1" as="geometry">
            <mxPoint x="270" y="400" as="sourcePoint" />
            <mxPoint x="300" y="350" as="targetPoint" />
            <Array as="points">
              <mxPoint x="388" y="400" />
            </Array>
          </mxGeometry>
        </mxCell>
        <mxCell id="YjwHPkgiHejPP97CCBkF-234" value="(0, N)" style="text;html=1;align=center;verticalAlign=middle;resizable=0;points=[];autosize=1;strokeColor=none;fillColor=none;fontFamily=Helvetica;fontSize=10;fontColor=default;" vertex="1" parent="1">
          <mxGeometry x="216.5" y="300" width="50" height="30" as="geometry" />
        </mxCell>
        <mxCell id="YjwHPkgiHejPP97CCBkF-235" value="(0, N)" style="text;html=1;align=center;verticalAlign=middle;resizable=0;points=[];autosize=1;strokeColor=none;fillColor=none;fontFamily=Helvetica;fontSize=10;fontColor=default;" vertex="1" parent="1">
          <mxGeometry x="302" y="375" width="50" height="30" as="geometry" />
        </mxCell>
        <mxCell id="YjwHPkgiHejPP97CCBkF-236" value="" style="group;pointerEvents=0;align=center;verticalAlign=top;fontFamily=Helvetica;fontSize=12;fontColor=default;fillColor=none;gradientColor=none;" vertex="1" connectable="0" parent="1">
          <mxGeometry x="438" y="296" width="5" height="30" as="geometry" />
        </mxCell>
        <mxCell id="YjwHPkgiHejPP97CCBkF-237" value="" style="endArrow=none;html=1;rounded=0;fontFamily=Helvetica;fontSize=12;fontColor=default;entryX=0;entryY=0;entryDx=0;entryDy=0;" edge="1" parent="YjwHPkgiHejPP97CCBkF-236">
          <mxGeometry width="50" height="50" relative="1" as="geometry">
            <mxPoint x="2.5" y="30" as="sourcePoint" />
            <mxPoint x="2.5" y="5" as="targetPoint" />
          </mxGeometry>
        </mxCell>
        <mxCell id="YjwHPkgiHejPP97CCBkF-238" value="" style="ellipse;whiteSpace=wrap;html=1;pointerEvents=0;align=center;verticalAlign=top;fontFamily=Helvetica;fontSize=12;fontColor=default;fillColor=none;gradientColor=none;rotation=-180;" vertex="1" parent="YjwHPkgiHejPP97CCBkF-236">
          <mxGeometry width="5" height="5" as="geometry" />
        </mxCell>
        <mxCell id="YjwHPkgiHejPP97CCBkF-239" value="Costo" style="text;html=1;align=center;verticalAlign=middle;resizable=0;points=[];autosize=1;strokeColor=none;fillColor=none;fontFamily=Helvetica;fontSize=10;fontColor=default;" vertex="1" parent="1">
          <mxGeometry x="414.5" y="272" width="50" height="30" as="geometry" />
        </mxCell>
        <mxCell id="YjwHPkgiHejPP97CCBkF-240" value="" style="group;direction=east;rotation=-90;pointerEvents=0;align=center;verticalAlign=top;fontFamily=Helvetica;fontSize=12;fontColor=default;fillColor=none;gradientColor=none;" vertex="1" connectable="0" parent="1">
          <mxGeometry x="450" y="331" width="5" height="30" as="geometry" />
        </mxCell>
        <mxCell id="YjwHPkgiHejPP97CCBkF-241" value="" style="endArrow=none;html=1;rounded=0;fontFamily=Helvetica;fontSize=12;fontColor=default;entryX=0;entryY=0;entryDx=0;entryDy=0;" edge="1" parent="YjwHPkgiHejPP97CCBkF-240">
          <mxGeometry width="50" height="50" relative="1" as="geometry">
            <mxPoint x="-12" y="15" as="sourcePoint" />
            <mxPoint x="13" y="15" as="targetPoint" />
          </mxGeometry>
        </mxCell>
        <mxCell id="YjwHPkgiHejPP97CCBkF-242" value="" style="ellipse;whiteSpace=wrap;html=1;pointerEvents=0;align=center;verticalAlign=top;fontFamily=Helvetica;fontSize=12;fontColor=default;fillColor=none;gradientColor=none;rotation=-90;" vertex="1" parent="YjwHPkgiHejPP97CCBkF-240">
          <mxGeometry x="13" y="13" width="5" height="5" as="geometry" />
        </mxCell>
        <mxCell id="YjwHPkgiHejPP97CCBkF-243" value="Data" style="text;html=1;align=center;verticalAlign=middle;resizable=0;points=[];autosize=1;strokeColor=none;fillColor=none;fontFamily=Helvetica;fontSize=10;fontColor=default;" vertex="1" parent="1">
          <mxGeometry x="463.5" y="331" width="40" height="30" as="geometry" />
        </mxCell>
        <mxCell id="YjwHPkgiHejPP97CCBkF-244" value="" style="endArrow=none;html=1;rounded=0;fontFamily=Helvetica;fontSize=12;fontColor=default;entryX=0.5;entryY=1;entryDx=0;entryDy=0;" edge="1" parent="1" target="YjwHPkgiHejPP97CCBkF-194">
          <mxGeometry width="50" height="50" relative="1" as="geometry">
            <mxPoint x="80" y="1000" as="sourcePoint" />
            <mxPoint x="80" y="327" as="targetPoint" />
          </mxGeometry>
        </mxCell>
        <mxCell id="YjwHPkgiHejPP97CCBkF-245" value="Sensore" style="rounded=0;whiteSpace=wrap;html=1;" vertex="1" parent="1">
          <mxGeometry x="184" y="510" width="80" height="30" as="geometry" />
        </mxCell>
        <mxCell id="YjwHPkgiHejPP97CCBkF-246" value="" style="group;pointerEvents=0;align=center;verticalAlign=top;fontFamily=Helvetica;fontSize=12;fontColor=default;fillColor=none;gradientColor=none;" vertex="1" connectable="0" parent="1">
          <mxGeometry x="181.5" y="492" width="5" height="30" as="geometry" />
        </mxCell>
        <mxCell id="YjwHPkgiHejPP97CCBkF-247" value="" style="endArrow=none;html=1;rounded=0;fontFamily=Helvetica;fontSize=12;fontColor=default;entryX=0;entryY=0;entryDx=0;entryDy=0;" edge="1" parent="YjwHPkgiHejPP97CCBkF-246">
          <mxGeometry width="50" height="50" relative="1" as="geometry">
            <mxPoint x="2.5" y="30" as="sourcePoint" />
            <mxPoint x="2.5" y="5" as="targetPoint" />
          </mxGeometry>
        </mxCell>
        <mxCell id="YjwHPkgiHejPP97CCBkF-248" value="" style="ellipse;whiteSpace=wrap;html=1;pointerEvents=0;align=center;verticalAlign=top;fontFamily=Helvetica;fontSize=12;fillColor=#000000;strokeColor=#000000;fontColor=default;rotation=-180;" vertex="1" parent="YjwHPkgiHejPP97CCBkF-246">
          <mxGeometry width="5" height="5" as="geometry" />
        </mxCell>
        <mxCell id="YjwHPkgiHejPP97CCBkF-249" value="IDSensore" style="text;html=1;align=center;verticalAlign=middle;resizable=0;points=[];autosize=1;strokeColor=none;fillColor=none;fontFamily=Helvetica;fontSize=10;fontColor=default;" vertex="1" parent="1">
          <mxGeometry x="148.5" y="469" width="70" height="30" as="geometry" />
        </mxCell>
        <mxCell id="YjwHPkgiHejPP97CCBkF-250" value="" style="group;pointerEvents=0;align=center;verticalAlign=top;fontFamily=Helvetica;fontSize=12;fontColor=default;fillColor=none;gradientColor=none;" vertex="1" connectable="0" parent="1">
          <mxGeometry x="261.5" y="492" width="5" height="30" as="geometry" />
        </mxCell>
        <mxCell id="YjwHPkgiHejPP97CCBkF-251" value="" style="endArrow=none;html=1;rounded=0;fontFamily=Helvetica;fontSize=12;fontColor=default;entryX=0;entryY=0;entryDx=0;entryDy=0;" edge="1" parent="YjwHPkgiHejPP97CCBkF-250">
          <mxGeometry width="50" height="50" relative="1" as="geometry">
            <mxPoint x="2.5" y="30" as="sourcePoint" />
            <mxPoint x="2.5" y="5" as="targetPoint" />
          </mxGeometry>
        </mxCell>
        <mxCell id="YjwHPkgiHejPP97CCBkF-252" value="" style="ellipse;whiteSpace=wrap;html=1;pointerEvents=0;align=center;verticalAlign=top;fontFamily=Helvetica;fontSize=12;fontColor=default;fillColor=none;gradientColor=none;rotation=-180;" vertex="1" parent="YjwHPkgiHejPP97CCBkF-250">
          <mxGeometry width="5" height="5" as="geometry" />
        </mxCell>
        <mxCell id="YjwHPkgiHejPP97CCBkF-253" value="DataInstallazione" style="text;html=1;align=center;verticalAlign=middle;resizable=0;points=[];autosize=1;strokeColor=none;fillColor=none;fontFamily=Helvetica;fontSize=10;fontColor=default;" vertex="1" parent="1">
          <mxGeometry x="212" y="470" width="100" height="30" as="geometry" />
        </mxCell>
        <mxCell id="YjwHPkgiHejPP97CCBkF-254" value="&lt;div style=&quot;&quot;&gt;&lt;span style=&quot;background-color: initial;&quot;&gt;Dato&lt;/span&gt;&lt;br&gt;&lt;/div&gt;" style="rhombus;whiteSpace=wrap;html=1;pointerEvents=0;align=center;verticalAlign=top;fontFamily=Helvetica;fontSize=12;fontColor=default;fillColor=none;gradientColor=none;" vertex="1" parent="1">
          <mxGeometry x="363" y="443" width="100" height="27" as="geometry" />
        </mxCell>
        <mxCell id="YjwHPkgiHejPP97CCBkF-255" value="" style="endArrow=none;html=1;rounded=0;fontFamily=Helvetica;fontSize=12;fontColor=default;entryX=0;entryY=1;entryDx=0;entryDy=0;exitX=0.995;exitY=0.566;exitDx=0;exitDy=0;exitPerimeter=0;" edge="1" source="YjwHPkgiHejPP97CCBkF-245" target="YjwHPkgiHejPP97CCBkF-254" parent="1">
          <mxGeometry width="50" height="50" relative="1" as="geometry">
            <mxPoint x="270" y="527" as="sourcePoint" />
            <mxPoint x="300" y="477" as="targetPoint" />
            <Array as="points">
              <mxPoint x="388" y="527" />
            </Array>
          </mxGeometry>
        </mxCell>
        <mxCell id="YjwHPkgiHejPP97CCBkF-256" value="(0, N)" style="text;html=1;align=center;verticalAlign=middle;resizable=0;points=[];autosize=1;strokeColor=none;fillColor=none;fontFamily=Helvetica;fontSize=10;fontColor=default;" vertex="1" parent="1">
          <mxGeometry x="216.5" y="427" width="50" height="30" as="geometry" />
        </mxCell>
        <mxCell id="YjwHPkgiHejPP97CCBkF-257" value="(0, N)" style="text;html=1;align=center;verticalAlign=middle;resizable=0;points=[];autosize=1;strokeColor=none;fillColor=none;fontFamily=Helvetica;fontSize=10;fontColor=default;" vertex="1" parent="1">
          <mxGeometry x="302" y="502" width="50" height="30" as="geometry" />
        </mxCell>
        <mxCell id="YjwHPkgiHejPP97CCBkF-258" value="" style="group;pointerEvents=0;align=center;verticalAlign=top;fontFamily=Helvetica;fontSize=12;fontColor=default;fillColor=none;gradientColor=none;" vertex="1" connectable="0" parent="1">
          <mxGeometry x="437" y="421" width="5" height="30" as="geometry" />
        </mxCell>
        <mxCell id="YjwHPkgiHejPP97CCBkF-259" value="" style="endArrow=none;html=1;rounded=0;fontFamily=Helvetica;fontSize=12;fontColor=default;entryX=0;entryY=0;entryDx=0;entryDy=0;" edge="1" parent="YjwHPkgiHejPP97CCBkF-258">
          <mxGeometry width="50" height="50" relative="1" as="geometry">
            <mxPoint x="2.5" y="30" as="sourcePoint" />
            <mxPoint x="2.5" y="5" as="targetPoint" />
          </mxGeometry>
        </mxCell>
        <mxCell id="YjwHPkgiHejPP97CCBkF-260" value="" style="ellipse;whiteSpace=wrap;html=1;pointerEvents=0;align=center;verticalAlign=top;fontFamily=Helvetica;fontSize=12;fontColor=default;fillColor=none;gradientColor=none;rotation=-180;" vertex="1" parent="YjwHPkgiHejPP97CCBkF-258">
          <mxGeometry width="5" height="5" as="geometry" />
        </mxCell>
        <mxCell id="YjwHPkgiHejPP97CCBkF-261" value="" style="group;direction=east;rotation=-90;pointerEvents=0;align=center;verticalAlign=top;fontFamily=Helvetica;fontSize=12;fontColor=default;fillColor=none;gradientColor=none;" vertex="1" connectable="0" parent="1">
          <mxGeometry x="450" y="448" width="5" height="30" as="geometry" />
        </mxCell>
        <mxCell id="YjwHPkgiHejPP97CCBkF-262" value="" style="endArrow=none;html=1;rounded=0;fontFamily=Helvetica;fontSize=12;fontColor=default;entryX=0;entryY=0;entryDx=0;entryDy=0;" edge="1" parent="YjwHPkgiHejPP97CCBkF-261">
          <mxGeometry width="50" height="50" relative="1" as="geometry">
            <mxPoint x="-12" y="15" as="sourcePoint" />
            <mxPoint x="13" y="15" as="targetPoint" />
          </mxGeometry>
        </mxCell>
        <mxCell id="YjwHPkgiHejPP97CCBkF-263" value="" style="ellipse;whiteSpace=wrap;html=1;pointerEvents=0;align=center;verticalAlign=top;fontFamily=Helvetica;fontSize=12;fontColor=default;fillColor=none;gradientColor=none;rotation=-90;" vertex="1" parent="YjwHPkgiHejPP97CCBkF-261">
          <mxGeometry x="13" y="13" width="5" height="5" as="geometry" />
        </mxCell>
        <mxCell id="YjwHPkgiHejPP97CCBkF-264" value="Data" style="text;html=1;align=center;verticalAlign=middle;resizable=0;points=[];autosize=1;strokeColor=none;fillColor=none;fontFamily=Helvetica;fontSize=10;fontColor=default;" vertex="1" parent="1">
          <mxGeometry x="461.5" y="448" width="40" height="30" as="geometry" />
        </mxCell>
        <mxCell id="YjwHPkgiHejPP97CCBkF-265" value="" style="endArrow=none;html=1;rounded=0;fontFamily=Helvetica;fontSize=12;fontColor=default;exitX=0;exitY=0;exitDx=0;exitDy=0;" edge="1" source="YjwHPkgiHejPP97CCBkF-254" parent="1">
          <mxGeometry width="50" height="50" relative="1" as="geometry">
            <mxPoint x="250" y="527" as="sourcePoint" />
            <mxPoint x="80" y="453" as="targetPoint" />
            <Array as="points">
              <mxPoint x="80" y="453" />
            </Array>
          </mxGeometry>
        </mxCell>
        <mxCell id="YjwHPkgiHejPP97CCBkF-266" value="Valore" style="text;html=1;align=center;verticalAlign=middle;resizable=0;points=[];autosize=1;strokeColor=none;fillColor=none;fontFamily=Helvetica;fontSize=10;fontColor=default;" vertex="1" parent="1">
          <mxGeometry x="413.5" y="398" width="50" height="30" as="geometry" />
        </mxCell>
        <mxCell id="YjwHPkgiHejPP97CCBkF-289" value="" style="group;direction=east;rotation=90;pointerEvents=0;align=center;verticalAlign=top;fontFamily=Helvetica;fontSize=12;fontColor=default;fillColor=none;gradientColor=none;" vertex="1" connectable="0" parent="1">
          <mxGeometry x="172" y="525" width="5" height="30" as="geometry" />
        </mxCell>
        <mxCell id="YjwHPkgiHejPP97CCBkF-290" value="" style="endArrow=none;html=1;rounded=0;fontFamily=Helvetica;fontSize=12;fontColor=default;entryX=0;entryY=0;entryDx=0;entryDy=0;" edge="1" parent="YjwHPkgiHejPP97CCBkF-289">
          <mxGeometry width="50" height="50" relative="1" as="geometry">
            <mxPoint x="17" y="15" as="sourcePoint" />
            <mxPoint x="-8" y="15" as="targetPoint" />
          </mxGeometry>
        </mxCell>
        <mxCell id="YjwHPkgiHejPP97CCBkF-291" value="" style="ellipse;whiteSpace=wrap;html=1;pointerEvents=0;align=center;verticalAlign=top;fontFamily=Helvetica;fontSize=12;fontColor=default;fillColor=none;gradientColor=none;rotation=90;" vertex="1" parent="YjwHPkgiHejPP97CCBkF-289">
          <mxGeometry x="-13" y="12" width="5" height="5" as="geometry" />
        </mxCell>
        <mxCell id="YjwHPkgiHejPP97CCBkF-292" value="Tipo" style="text;html=1;align=center;verticalAlign=middle;resizable=0;points=[];autosize=1;strokeColor=none;fillColor=none;fontFamily=Helvetica;fontSize=10;fontColor=default;" vertex="1" parent="1">
          <mxGeometry x="125.5" y="524" width="40" height="30" as="geometry" />
        </mxCell>
        <mxCell id="YjwHPkgiHejPP97CCBkF-293" value="" style="group;rotation=-90;" vertex="1" connectable="0" parent="1">
          <mxGeometry x="168" y="495" width="5" height="30" as="geometry" />
        </mxCell>
        <mxCell id="YjwHPkgiHejPP97CCBkF-294" value="" style="endArrow=none;html=1;rounded=0;fontFamily=Helvetica;fontSize=12;fontColor=default;entryX=0;entryY=0;entryDx=0;entryDy=0;" edge="1" parent="YjwHPkgiHejPP97CCBkF-293">
          <mxGeometry width="50" height="50" relative="1" as="geometry">
            <mxPoint x="18" y="15" as="sourcePoint" />
            <mxPoint x="-7" y="15" as="targetPoint" />
          </mxGeometry>
        </mxCell>
        <mxCell id="YjwHPkgiHejPP97CCBkF-295" value="" style="whiteSpace=wrap;html=1;aspect=fixed;pointerEvents=0;align=center;verticalAlign=top;fontFamily=Helvetica;fontSize=12;fillColor=#000000;strokeColor=#000000;fillStyle=auto;rotation=-90;" vertex="1" parent="YjwHPkgiHejPP97CCBkF-293">
          <mxGeometry x="-12" y="13" width="5" height="5" as="geometry" />
        </mxCell>
        <mxCell id="YjwHPkgiHejPP97CCBkF-296" value="Posizione" style="text;html=1;align=center;verticalAlign=middle;resizable=0;points=[];autosize=1;strokeColor=none;fillColor=none;fontFamily=Helvetica;fontSize=10;fontColor=default;" vertex="1" parent="1">
          <mxGeometry x="97" y="495" width="70" height="30" as="geometry" />
        </mxCell>
        <mxCell id="YjwHPkgiHejPP97CCBkF-301" value="Evento" style="rounded=0;whiteSpace=wrap;html=1;" vertex="1" parent="1">
          <mxGeometry x="183.75" y="649" width="80" height="30" as="geometry" />
        </mxCell>
        <mxCell id="YjwHPkgiHejPP97CCBkF-302" value="" style="group;pointerEvents=0;align=center;verticalAlign=top;fontFamily=Helvetica;fontSize=12;fontColor=default;fillColor=none;gradientColor=none;" vertex="1" connectable="0" parent="1">
          <mxGeometry x="181.25" y="631" width="5" height="30" as="geometry" />
        </mxCell>
        <mxCell id="YjwHPkgiHejPP97CCBkF-303" value="" style="endArrow=none;html=1;rounded=0;fontFamily=Helvetica;fontSize=12;fontColor=default;entryX=0;entryY=0;entryDx=0;entryDy=0;" edge="1" parent="YjwHPkgiHejPP97CCBkF-302">
          <mxGeometry width="50" height="50" relative="1" as="geometry">
            <mxPoint x="2.5" y="30" as="sourcePoint" />
            <mxPoint x="2.5" y="5" as="targetPoint" />
          </mxGeometry>
        </mxCell>
        <mxCell id="YjwHPkgiHejPP97CCBkF-304" value="" style="ellipse;whiteSpace=wrap;html=1;pointerEvents=0;align=center;verticalAlign=top;fontFamily=Helvetica;fontSize=12;fillColor=#000000;strokeColor=#000000;fontColor=default;rotation=-180;" vertex="1" parent="YjwHPkgiHejPP97CCBkF-302">
          <mxGeometry width="5" height="5" as="geometry" />
        </mxCell>
        <mxCell id="YjwHPkgiHejPP97CCBkF-305" value="IDEvento" style="text;html=1;align=center;verticalAlign=middle;resizable=0;points=[];autosize=1;strokeColor=none;fillColor=none;fontFamily=Helvetica;fontSize=10;fontColor=default;" vertex="1" parent="1">
          <mxGeometry x="151.25" y="608" width="60" height="30" as="geometry" />
        </mxCell>
        <mxCell id="YjwHPkgiHejPP97CCBkF-306" value="" style="group;pointerEvents=0;align=center;verticalAlign=top;fontFamily=Helvetica;fontSize=12;fontColor=default;fillColor=none;gradientColor=none;" vertex="1" connectable="0" parent="1">
          <mxGeometry x="261.25" y="631" width="5" height="30" as="geometry" />
        </mxCell>
        <mxCell id="YjwHPkgiHejPP97CCBkF-307" value="" style="endArrow=none;html=1;rounded=0;fontFamily=Helvetica;fontSize=12;fontColor=default;entryX=0;entryY=0;entryDx=0;entryDy=0;" edge="1" parent="YjwHPkgiHejPP97CCBkF-306">
          <mxGeometry width="50" height="50" relative="1" as="geometry">
            <mxPoint x="2.5" y="30" as="sourcePoint" />
            <mxPoint x="2.5" y="5" as="targetPoint" />
          </mxGeometry>
        </mxCell>
        <mxCell id="YjwHPkgiHejPP97CCBkF-308" value="" style="ellipse;whiteSpace=wrap;html=1;pointerEvents=0;align=center;verticalAlign=top;fontFamily=Helvetica;fontSize=12;fontColor=default;fillColor=none;gradientColor=none;rotation=-180;" vertex="1" parent="YjwHPkgiHejPP97CCBkF-306">
          <mxGeometry width="5" height="5" as="geometry" />
        </mxCell>
        <mxCell id="YjwHPkgiHejPP97CCBkF-309" value="Data" style="text;html=1;align=center;verticalAlign=middle;resizable=0;points=[];autosize=1;strokeColor=none;fillColor=none;fontFamily=Helvetica;fontSize=10;fontColor=default;" vertex="1" parent="1">
          <mxGeometry x="251.75" y="609" width="40" height="30" as="geometry" />
        </mxCell>
        <mxCell id="YjwHPkgiHejPP97CCBkF-310" value="&lt;div style=&quot;padding-top: 3px;&quot;&gt;&lt;span style=&quot;background-color: initial;&quot;&gt;Partecipaizione&lt;/span&gt;&lt;br&gt;&lt;/div&gt;" style="rhombus;whiteSpace=wrap;html=1;pointerEvents=0;align=center;verticalAlign=top;fontFamily=Helvetica;fontSize=12;fontColor=default;fillColor=none;gradientColor=none;spacingTop=2;" vertex="1" parent="1">
          <mxGeometry x="362.75" y="582" width="127.25" height="38" as="geometry" />
        </mxCell>
        <mxCell id="YjwHPkgiHejPP97CCBkF-311" value="" style="endArrow=none;html=1;rounded=0;fontFamily=Helvetica;fontSize=12;fontColor=default;entryX=0;entryY=1;entryDx=0;entryDy=0;exitX=0.995;exitY=0.566;exitDx=0;exitDy=0;exitPerimeter=0;" edge="1" source="YjwHPkgiHejPP97CCBkF-301" target="YjwHPkgiHejPP97CCBkF-310" parent="1">
          <mxGeometry width="50" height="50" relative="1" as="geometry">
            <mxPoint x="269.75" y="666" as="sourcePoint" />
            <mxPoint x="299.75" y="616" as="targetPoint" />
            <Array as="points">
              <mxPoint x="395" y="664" />
            </Array>
          </mxGeometry>
        </mxCell>
        <mxCell id="YjwHPkgiHejPP97CCBkF-312" value="(0, N)" style="text;html=1;align=center;verticalAlign=middle;resizable=0;points=[];autosize=1;strokeColor=none;fillColor=none;fontFamily=Helvetica;fontSize=10;fontColor=default;" vertex="1" parent="1">
          <mxGeometry x="216.25" y="566" width="50" height="30" as="geometry" />
        </mxCell>
        <mxCell id="YjwHPkgiHejPP97CCBkF-313" value="(0, N)" style="text;html=1;align=center;verticalAlign=middle;resizable=0;points=[];autosize=1;strokeColor=none;fillColor=none;fontFamily=Helvetica;fontSize=10;fontColor=default;" vertex="1" parent="1">
          <mxGeometry x="301.75" y="641" width="50" height="30" as="geometry" />
        </mxCell>
        <mxCell id="YjwHPkgiHejPP97CCBkF-314" value="" style="group;pointerEvents=0;align=center;verticalAlign=top;fontFamily=Helvetica;fontSize=12;fontColor=default;fillColor=none;gradientColor=none;" vertex="1" connectable="0" parent="1">
          <mxGeometry x="443.75" y="558" width="5" height="30" as="geometry" />
        </mxCell>
        <mxCell id="YjwHPkgiHejPP97CCBkF-315" value="" style="endArrow=none;html=1;rounded=0;fontFamily=Helvetica;fontSize=12;fontColor=default;entryX=0;entryY=0;entryDx=0;entryDy=0;" edge="1" parent="YjwHPkgiHejPP97CCBkF-314">
          <mxGeometry width="50" height="50" relative="1" as="geometry">
            <mxPoint x="2.5" y="30" as="sourcePoint" />
            <mxPoint x="2.5" y="5" as="targetPoint" />
          </mxGeometry>
        </mxCell>
        <mxCell id="YjwHPkgiHejPP97CCBkF-316" value="" style="ellipse;whiteSpace=wrap;html=1;pointerEvents=0;align=center;verticalAlign=top;fontFamily=Helvetica;fontSize=12;fontColor=default;fillColor=none;gradientColor=none;rotation=-180;" vertex="1" parent="YjwHPkgiHejPP97CCBkF-314">
          <mxGeometry width="5" height="5" as="geometry" />
        </mxCell>
        <mxCell id="YjwHPkgiHejPP97CCBkF-320" value="Data" style="text;html=1;align=center;verticalAlign=middle;resizable=0;points=[];autosize=1;strokeColor=none;fillColor=none;fontFamily=Helvetica;fontSize=10;fontColor=default;" vertex="1" parent="1">
          <mxGeometry x="451.5" y="626" width="40" height="30" as="geometry" />
        </mxCell>
        <mxCell id="YjwHPkgiHejPP97CCBkF-321" value="" style="group;direction=east;rotation=90;pointerEvents=0;align=center;verticalAlign=top;fontFamily=Helvetica;fontSize=12;fontColor=default;fillColor=none;gradientColor=none;" vertex="1" connectable="0" parent="1">
          <mxGeometry x="171.75" y="664" width="5" height="30" as="geometry" />
        </mxCell>
        <mxCell id="YjwHPkgiHejPP97CCBkF-322" value="" style="endArrow=none;html=1;rounded=0;fontFamily=Helvetica;fontSize=12;fontColor=default;entryX=0;entryY=0;entryDx=0;entryDy=0;" edge="1" parent="YjwHPkgiHejPP97CCBkF-321">
          <mxGeometry width="50" height="50" relative="1" as="geometry">
            <mxPoint x="17" y="15" as="sourcePoint" />
            <mxPoint x="-8" y="15" as="targetPoint" />
          </mxGeometry>
        </mxCell>
        <mxCell id="YjwHPkgiHejPP97CCBkF-323" value="" style="ellipse;whiteSpace=wrap;html=1;pointerEvents=0;align=center;verticalAlign=top;fontFamily=Helvetica;fontSize=12;fontColor=default;fillColor=none;gradientColor=none;rotation=90;" vertex="1" parent="YjwHPkgiHejPP97CCBkF-321">
          <mxGeometry x="-13" y="12" width="5" height="5" as="geometry" />
        </mxCell>
        <mxCell id="YjwHPkgiHejPP97CCBkF-324" value="Nome" style="text;html=1;align=center;verticalAlign=middle;resizable=0;points=[];autosize=1;strokeColor=none;fillColor=none;fontFamily=Helvetica;fontSize=10;fontColor=default;" vertex="1" parent="1">
          <mxGeometry x="117.25" y="663" width="50" height="30" as="geometry" />
        </mxCell>
        <mxCell id="YjwHPkgiHejPP97CCBkF-328" value="" style="endArrow=none;html=1;rounded=0;fontFamily=Helvetica;fontSize=12;fontColor=default;exitX=0;exitY=0;exitDx=0;exitDy=0;" edge="1" source="YjwHPkgiHejPP97CCBkF-310" parent="1">
          <mxGeometry width="50" height="50" relative="1" as="geometry">
            <mxPoint x="249.75" y="666" as="sourcePoint" />
            <mxPoint x="79.75" y="592" as="targetPoint" />
            <Array as="points">
              <mxPoint x="79.75" y="592" />
            </Array>
          </mxGeometry>
        </mxCell>
        <mxCell id="YjwHPkgiHejPP97CCBkF-329" value="Ruolo" style="text;html=1;align=center;verticalAlign=middle;resizable=0;points=[];autosize=1;strokeColor=none;fillColor=none;fontFamily=Helvetica;fontSize=10;fontColor=default;" vertex="1" parent="1">
          <mxGeometry x="413.25" y="537" width="50" height="30" as="geometry" />
        </mxCell>
        <mxCell id="YjwHPkgiHejPP97CCBkF-330" value="" style="group;direction=east;rotation=90;pointerEvents=0;align=center;verticalAlign=top;fontFamily=Helvetica;fontSize=12;fontColor=default;fillColor=none;gradientColor=none;" vertex="1" connectable="0" parent="1">
          <mxGeometry x="171" y="634" width="5" height="30" as="geometry" />
        </mxCell>
        <mxCell id="YjwHPkgiHejPP97CCBkF-331" value="" style="endArrow=none;html=1;rounded=0;fontFamily=Helvetica;fontSize=12;fontColor=default;entryX=0;entryY=0;entryDx=0;entryDy=0;" edge="1" parent="YjwHPkgiHejPP97CCBkF-330">
          <mxGeometry width="50" height="50" relative="1" as="geometry">
            <mxPoint x="17" y="15" as="sourcePoint" />
            <mxPoint x="-8" y="15" as="targetPoint" />
          </mxGeometry>
        </mxCell>
        <mxCell id="YjwHPkgiHejPP97CCBkF-332" value="" style="ellipse;whiteSpace=wrap;html=1;pointerEvents=0;align=center;verticalAlign=top;fontFamily=Helvetica;fontSize=12;fontColor=default;fillColor=none;gradientColor=none;rotation=90;" vertex="1" parent="YjwHPkgiHejPP97CCBkF-330">
          <mxGeometry x="-13" y="12" width="5" height="5" as="geometry" />
        </mxCell>
        <mxCell id="YjwHPkgiHejPP97CCBkF-333" value="NPosti" style="text;html=1;align=center;verticalAlign=middle;resizable=0;points=[];autosize=1;strokeColor=none;fillColor=none;fontFamily=Helvetica;fontSize=10;fontColor=default;" vertex="1" parent="1">
          <mxGeometry x="115" y="633" width="50" height="30" as="geometry" />
        </mxCell>
        <mxCell id="YjwHPkgiHejPP97CCBkF-334" value="" style="group;pointerEvents=0;align=center;verticalAlign=top;fontFamily=Helvetica;fontSize=12;fontColor=default;fillColor=none;gradientColor=none;" vertex="1" connectable="0" parent="1">
          <mxGeometry x="230" y="630" width="5" height="20" as="geometry" />
        </mxCell>
        <mxCell id="YjwHPkgiHejPP97CCBkF-335" value="" style="endArrow=none;html=1;rounded=0;fontFamily=Helvetica;fontSize=12;fontColor=default;entryX=0;entryY=0;entryDx=0;entryDy=0;" edge="1" parent="YjwHPkgiHejPP97CCBkF-334">
          <mxGeometry width="50" height="50" relative="1" as="geometry">
            <mxPoint x="2.5" y="20" as="sourcePoint" />
            <mxPoint x="2.5" y="3.333333333333333" as="targetPoint" />
          </mxGeometry>
        </mxCell>
        <mxCell id="YjwHPkgiHejPP97CCBkF-336" value="" style="ellipse;whiteSpace=wrap;html=1;pointerEvents=0;align=center;verticalAlign=top;fontFamily=Helvetica;fontSize=12;fontColor=default;fillColor=none;gradientColor=none;rotation=-180;" vertex="1" parent="YjwHPkgiHejPP97CCBkF-334">
          <mxGeometry width="5" height="3.333333333333333" as="geometry" />
        </mxCell>
        <mxCell id="YjwHPkgiHejPP97CCBkF-337" value="Luogo" style="text;html=1;align=center;verticalAlign=middle;resizable=0;points=[];autosize=1;strokeColor=none;fillColor=none;fontFamily=Helvetica;fontSize=10;fontColor=default;" vertex="1" parent="1">
          <mxGeometry x="204.5" y="608" width="50" height="30" as="geometry" />
        </mxCell>
        <mxCell id="YjwHPkgiHejPP97CCBkF-338" value="" style="group;direction=east;rotation=90;pointerEvents=0;align=center;verticalAlign=top;fontFamily=Helvetica;fontSize=12;fontColor=default;fillColor=none;gradientColor=none;" vertex="1" connectable="0" parent="1">
          <mxGeometry x="150" y="649" width="5" height="30" as="geometry" />
        </mxCell>
        <mxCell id="YjwHPkgiHejPP97CCBkF-339" value="" style="endArrow=none;html=1;rounded=0;fontFamily=Helvetica;fontSize=12;fontColor=default;entryX=0;entryY=0;entryDx=0;entryDy=0;" edge="1" parent="YjwHPkgiHejPP97CCBkF-338">
          <mxGeometry width="50" height="50" relative="1" as="geometry">
            <mxPoint x="17" y="15" as="sourcePoint" />
            <mxPoint x="-8" y="15" as="targetPoint" />
          </mxGeometry>
        </mxCell>
        <mxCell id="YjwHPkgiHejPP97CCBkF-340" value="" style="ellipse;whiteSpace=wrap;html=1;pointerEvents=0;align=center;verticalAlign=top;fontFamily=Helvetica;fontSize=12;fontColor=default;fillColor=none;gradientColor=none;rotation=90;" vertex="1" parent="YjwHPkgiHejPP97CCBkF-338">
          <mxGeometry x="-13" y="12" width="5" height="5" as="geometry" />
        </mxCell>
        <mxCell id="YjwHPkgiHejPP97CCBkF-341" value="Descrizione" style="text;html=1;align=center;verticalAlign=middle;resizable=0;points=[];autosize=1;strokeColor=none;fillColor=none;fontFamily=Helvetica;fontSize=10;fontColor=default;" vertex="1" parent="1">
          <mxGeometry x="69" y="648" width="80" height="30" as="geometry" />
        </mxCell>
        <mxCell id="YjwHPkgiHejPP97CCBkF-342" value="" style="endArrow=none;html=1;rounded=0;fontFamily=Helvetica;fontSize=12;fontColor=default;entryX=0;entryY=0.5;entryDx=0;entryDy=0;" edge="1" parent="1" target="YjwHPkgiHejPP97CCBkF-301">
          <mxGeometry width="50" height="50" relative="1" as="geometry">
            <mxPoint x="166" y="664" as="sourcePoint" />
            <mxPoint x="179.75" y="664" as="targetPoint" />
          </mxGeometry>
        </mxCell>
        <mxCell id="YjwHPkgiHejPP97CCBkF-343" value="" style="endArrow=none;html=1;rounded=0;fontFamily=Helvetica;fontSize=12;fontColor=default;exitX=1;exitY=0.5;exitDx=0;exitDy=0;" edge="1" parent="1" source="YjwHPkgiHejPP97CCBkF-310">
          <mxGeometry width="50" height="50" relative="1" as="geometry">
            <mxPoint x="490" y="590" as="sourcePoint" />
            <mxPoint x="590" y="600" as="targetPoint" />
          </mxGeometry>
        </mxCell>
        <mxCell id="YjwHPkgiHejPP97CCBkF-344" value="Utente" style="text;html=1;align=center;verticalAlign=middle;resizable=0;points=[];autosize=1;strokeColor=none;fillColor=none;fontFamily=Helvetica;fontSize=12;fontColor=default;" vertex="1" parent="1">
          <mxGeometry x="580" y="585" width="60" height="30" as="geometry" />
        </mxCell>
        <mxCell id="YjwHPkgiHejPP97CCBkF-345" value="(0, N)" style="text;html=1;align=center;verticalAlign=middle;resizable=0;points=[];autosize=1;strokeColor=none;fillColor=none;fontFamily=Helvetica;fontSize=10;fontColor=default;" vertex="1" parent="1">
          <mxGeometry x="525" y="578" width="50" height="30" as="geometry" />
        </mxCell>
        <mxCell id="YjwHPkgiHejPP97CCBkF-346" value="" style="group" vertex="1" connectable="0" parent="1">
          <mxGeometry x="470" y="605" width="5" height="30" as="geometry" />
        </mxCell>
        <mxCell id="YjwHPkgiHejPP97CCBkF-347" value="" style="endArrow=none;html=1;rounded=0;fontFamily=Helvetica;fontSize=12;fontColor=default;entryX=0;entryY=0;entryDx=0;entryDy=0;" edge="1" parent="YjwHPkgiHejPP97CCBkF-346">
          <mxGeometry width="50" height="50" relative="1" as="geometry">
            <mxPoint x="2.5" as="sourcePoint" />
            <mxPoint x="2.5" y="25" as="targetPoint" />
          </mxGeometry>
        </mxCell>
        <mxCell id="YjwHPkgiHejPP97CCBkF-348" value="" style="ellipse;whiteSpace=wrap;html=1;pointerEvents=0;align=center;verticalAlign=top;fontFamily=Helvetica;fontSize=12;fontColor=default;fillColor=none;gradientColor=none;rotation=0;" vertex="1" parent="YjwHPkgiHejPP97CCBkF-346">
          <mxGeometry y="25" width="5" height="5" as="geometry" />
        </mxCell>
        <mxCell id="YjwHPkgiHejPP97CCBkF-349" value="Incidente" style="rounded=0;whiteSpace=wrap;html=1;" vertex="1" parent="1">
          <mxGeometry x="184.25" y="786" width="80" height="30" as="geometry" />
        </mxCell>
        <mxCell id="YjwHPkgiHejPP97CCBkF-350" value="" style="group;pointerEvents=0;align=center;verticalAlign=top;fontFamily=Helvetica;fontSize=12;fontColor=default;fillColor=none;gradientColor=none;" vertex="1" connectable="0" parent="1">
          <mxGeometry x="181.75" y="768" width="5" height="30" as="geometry" />
        </mxCell>
        <mxCell id="YjwHPkgiHejPP97CCBkF-351" value="" style="endArrow=none;html=1;rounded=0;fontFamily=Helvetica;fontSize=12;fontColor=default;entryX=0;entryY=0;entryDx=0;entryDy=0;" edge="1" parent="YjwHPkgiHejPP97CCBkF-350">
          <mxGeometry width="50" height="50" relative="1" as="geometry">
            <mxPoint x="2.5" y="30" as="sourcePoint" />
            <mxPoint x="2.5" y="5" as="targetPoint" />
          </mxGeometry>
        </mxCell>
        <mxCell id="YjwHPkgiHejPP97CCBkF-352" value="" style="ellipse;whiteSpace=wrap;html=1;pointerEvents=0;align=center;verticalAlign=top;fontFamily=Helvetica;fontSize=12;fillColor=#000000;strokeColor=#000000;fontColor=default;rotation=-180;" vertex="1" parent="YjwHPkgiHejPP97CCBkF-350">
          <mxGeometry width="5" height="5" as="geometry" />
        </mxCell>
        <mxCell id="YjwHPkgiHejPP97CCBkF-357" value="&lt;span style=&quot;font-size: 10px;&quot;&gt;Registrazione&lt;/span&gt;&lt;div&gt;&lt;span style=&quot;font-size: 10px;&quot;&gt;Incidente&lt;/span&gt;&lt;/div&gt;" style="rhombus;whiteSpace=wrap;html=1;pointerEvents=0;align=center;verticalAlign=top;fontFamily=Helvetica;fontSize=12;fontColor=default;fillColor=none;gradientColor=none;spacing=0;spacingTop=12;" vertex="1" parent="1">
          <mxGeometry x="363.25" y="710" width="106.75" height="60" as="geometry" />
        </mxCell>
        <mxCell id="YjwHPkgiHejPP97CCBkF-358" value="" style="endArrow=none;html=1;rounded=0;fontFamily=Helvetica;fontSize=12;fontColor=default;entryX=0;entryY=1;entryDx=0;entryDy=0;exitX=0.995;exitY=0.566;exitDx=0;exitDy=0;exitPerimeter=0;" edge="1" source="YjwHPkgiHejPP97CCBkF-349" target="YjwHPkgiHejPP97CCBkF-357" parent="1">
          <mxGeometry width="50" height="50" relative="1" as="geometry">
            <mxPoint x="270.25" y="803" as="sourcePoint" />
            <mxPoint x="300.25" y="753" as="targetPoint" />
            <Array as="points">
              <mxPoint x="388.25" y="803" />
            </Array>
          </mxGeometry>
        </mxCell>
        <mxCell id="YjwHPkgiHejPP97CCBkF-359" value="(0, N)" style="text;html=1;align=center;verticalAlign=middle;resizable=0;points=[];autosize=1;strokeColor=none;fillColor=none;fontFamily=Helvetica;fontSize=10;fontColor=default;" vertex="1" parent="1">
          <mxGeometry x="216.75" y="703" width="50" height="30" as="geometry" />
        </mxCell>
        <mxCell id="YjwHPkgiHejPP97CCBkF-360" value="(1, 1)" style="text;html=1;align=center;verticalAlign=middle;resizable=0;points=[];autosize=1;strokeColor=none;fillColor=none;fontFamily=Helvetica;fontSize=10;fontColor=default;" vertex="1" parent="1">
          <mxGeometry x="302.25" y="778" width="50" height="30" as="geometry" />
        </mxCell>
        <mxCell id="YjwHPkgiHejPP97CCBkF-361" value="" style="group;pointerEvents=0;align=center;verticalAlign=top;fontFamily=Helvetica;fontSize=12;fontColor=default;fillColor=none;gradientColor=none;" vertex="1" connectable="0" parent="1">
          <mxGeometry x="445.25" y="697" width="5" height="30" as="geometry" />
        </mxCell>
        <mxCell id="YjwHPkgiHejPP97CCBkF-362" value="" style="endArrow=none;html=1;rounded=0;fontFamily=Helvetica;fontSize=12;fontColor=default;entryX=0;entryY=0;entryDx=0;entryDy=0;" edge="1" parent="YjwHPkgiHejPP97CCBkF-361">
          <mxGeometry width="50" height="50" relative="1" as="geometry">
            <mxPoint x="2.5" y="30" as="sourcePoint" />
            <mxPoint x="2.5" y="5" as="targetPoint" />
          </mxGeometry>
        </mxCell>
        <mxCell id="YjwHPkgiHejPP97CCBkF-363" value="" style="ellipse;whiteSpace=wrap;html=1;pointerEvents=0;align=center;verticalAlign=top;fontFamily=Helvetica;fontSize=12;fontColor=default;fillColor=none;gradientColor=none;rotation=-180;" vertex="1" parent="YjwHPkgiHejPP97CCBkF-361">
          <mxGeometry width="5" height="5" as="geometry" />
        </mxCell>
        <mxCell id="YjwHPkgiHejPP97CCBkF-367" value="Data" style="text;html=1;align=center;verticalAlign=middle;resizable=0;points=[];autosize=1;strokeColor=none;fillColor=none;fontFamily=Helvetica;fontSize=10;fontColor=default;" vertex="1" parent="1">
          <mxGeometry x="441.75" y="768" width="40" height="30" as="geometry" />
        </mxCell>
        <mxCell id="YjwHPkgiHejPP97CCBkF-368" value="Descrizione" style="text;html=1;align=center;verticalAlign=middle;resizable=0;points=[];autosize=1;strokeColor=none;fillColor=none;fontFamily=Helvetica;fontSize=10;fontColor=default;" vertex="1" parent="1">
          <mxGeometry x="406.75" y="674" width="80" height="30" as="geometry" />
        </mxCell>
        <mxCell id="YjwHPkgiHejPP97CCBkF-369" value="" style="endArrow=none;html=1;rounded=0;fontFamily=Helvetica;fontSize=12;fontColor=default;exitX=0;exitY=0;exitDx=0;exitDy=0;" edge="1" source="YjwHPkgiHejPP97CCBkF-357" parent="1">
          <mxGeometry width="50" height="50" relative="1" as="geometry">
            <mxPoint x="250.25" y="803" as="sourcePoint" />
            <mxPoint x="80" y="725" as="targetPoint" />
            <Array as="points" />
          </mxGeometry>
        </mxCell>
        <mxCell id="YjwHPkgiHejPP97CCBkF-370" value="IDIncidente" style="text;html=1;align=center;verticalAlign=middle;resizable=0;points=[];autosize=1;strokeColor=none;fillColor=none;fontFamily=Helvetica;fontSize=10;fontColor=default;" vertex="1" parent="1">
          <mxGeometry x="146.75" y="746" width="70" height="30" as="geometry" />
        </mxCell>
        <mxCell id="YjwHPkgiHejPP97CCBkF-371" value="" style="group" vertex="1" connectable="0" parent="1">
          <mxGeometry x="457.5" y="745" width="5" height="30" as="geometry" />
        </mxCell>
        <mxCell id="YjwHPkgiHejPP97CCBkF-372" value="" style="endArrow=none;html=1;rounded=0;fontFamily=Helvetica;fontSize=12;fontColor=default;entryX=0;entryY=0;entryDx=0;entryDy=0;" edge="1" parent="YjwHPkgiHejPP97CCBkF-371">
          <mxGeometry width="50" height="50" relative="1" as="geometry">
            <mxPoint x="2.5" as="sourcePoint" />
            <mxPoint x="2.5" y="25" as="targetPoint" />
          </mxGeometry>
        </mxCell>
        <mxCell id="YjwHPkgiHejPP97CCBkF-373" value="" style="ellipse;whiteSpace=wrap;html=1;pointerEvents=0;align=center;verticalAlign=top;fontFamily=Helvetica;fontSize=12;fontColor=default;fillColor=none;gradientColor=none;rotation=0;" vertex="1" parent="YjwHPkgiHejPP97CCBkF-371">
          <mxGeometry y="25" width="5" height="5" as="geometry" />
        </mxCell>
        <mxCell id="YjwHPkgiHejPP97CCBkF-382" value="Utente" style="text;html=1;align=center;verticalAlign=middle;resizable=0;points=[];autosize=1;strokeColor=none;fillColor=none;fontFamily=Helvetica;fontSize=12;fontColor=default;" vertex="1" parent="1">
          <mxGeometry x="559" y="724.5" width="60" height="30" as="geometry" />
        </mxCell>
        <mxCell id="YjwHPkgiHejPP97CCBkF-383" value="(0, N)" style="text;html=1;align=center;verticalAlign=middle;resizable=0;points=[];autosize=1;strokeColor=none;fillColor=none;fontFamily=Helvetica;fontSize=10;fontColor=default;" vertex="1" parent="1">
          <mxGeometry x="504" y="717.5" width="50" height="30" as="geometry" />
        </mxCell>
        <mxCell id="YjwHPkgiHejPP97CCBkF-384" value="" style="endArrow=none;html=1;rounded=0;fontFamily=Helvetica;fontSize=12;fontColor=default;exitX=1;exitY=0.5;exitDx=0;exitDy=0;" edge="1" parent="1">
          <mxGeometry width="50" height="50" relative="1" as="geometry">
            <mxPoint x="469" y="740.5" as="sourcePoint" />
            <mxPoint x="569" y="739.5" as="targetPoint" />
          </mxGeometry>
        </mxCell>
        <mxCell id="YjwHPkgiHejPP97CCBkF-387" value="Text" style="text;html=1;align=center;verticalAlign=middle;whiteSpace=wrap;rounded=0;fontFamily=Helvetica;fontSize=12;fontColor=default;" vertex="1" parent="1">
          <mxGeometry x="520" y="710" width="60" height="30" as="geometry" />
        </mxCell>
        <mxCell id="YjwHPkgiHejPP97CCBkF-388" value="Traffico" style="rounded=0;whiteSpace=wrap;html=1;" vertex="1" parent="1">
          <mxGeometry x="184.25" y="926" width="80" height="30" as="geometry" />
        </mxCell>
        <mxCell id="YjwHPkgiHejPP97CCBkF-389" value="" style="group;pointerEvents=0;align=center;verticalAlign=top;fontFamily=Helvetica;fontSize=12;fontColor=default;fillColor=none;gradientColor=none;" vertex="1" connectable="0" parent="1">
          <mxGeometry x="181.75" y="908" width="5" height="30" as="geometry" />
        </mxCell>
        <mxCell id="YjwHPkgiHejPP97CCBkF-390" value="" style="endArrow=none;html=1;rounded=0;fontFamily=Helvetica;fontSize=12;fontColor=default;entryX=0;entryY=0;entryDx=0;entryDy=0;" edge="1" parent="YjwHPkgiHejPP97CCBkF-389">
          <mxGeometry width="50" height="50" relative="1" as="geometry">
            <mxPoint x="2.5" y="30" as="sourcePoint" />
            <mxPoint x="2.5" y="5" as="targetPoint" />
          </mxGeometry>
        </mxCell>
        <mxCell id="YjwHPkgiHejPP97CCBkF-391" value="" style="ellipse;whiteSpace=wrap;html=1;pointerEvents=0;align=center;verticalAlign=top;fontFamily=Helvetica;fontSize=12;fillColor=#000000;strokeColor=#000000;fontColor=default;rotation=-180;" vertex="1" parent="YjwHPkgiHejPP97CCBkF-389">
          <mxGeometry width="5" height="5" as="geometry" />
        </mxCell>
        <mxCell id="YjwHPkgiHejPP97CCBkF-392" value="&lt;span style=&quot;font-size: 10px;&quot;&gt;Monitoraggio&lt;/span&gt;&lt;div&gt;&lt;span style=&quot;font-size: 10px;&quot;&gt;Traffico&lt;/span&gt;&lt;/div&gt;" style="rhombus;whiteSpace=wrap;html=1;pointerEvents=0;align=center;verticalAlign=top;fontFamily=Helvetica;fontSize=12;fontColor=default;fillColor=none;gradientColor=none;spacing=0;spacingTop=12;" vertex="1" parent="1">
          <mxGeometry x="363.25" y="850" width="106.75" height="60" as="geometry" />
        </mxCell>
        <mxCell id="YjwHPkgiHejPP97CCBkF-393" value="" style="endArrow=none;html=1;rounded=0;fontFamily=Helvetica;fontSize=12;fontColor=default;entryX=0;entryY=1;entryDx=0;entryDy=0;exitX=0.995;exitY=0.566;exitDx=0;exitDy=0;exitPerimeter=0;" edge="1" source="YjwHPkgiHejPP97CCBkF-388" target="YjwHPkgiHejPP97CCBkF-392" parent="1">
          <mxGeometry width="50" height="50" relative="1" as="geometry">
            <mxPoint x="270.25" y="943" as="sourcePoint" />
            <mxPoint x="300.25" y="893" as="targetPoint" />
            <Array as="points">
              <mxPoint x="388.25" y="943" />
            </Array>
          </mxGeometry>
        </mxCell>
        <mxCell id="YjwHPkgiHejPP97CCBkF-394" value="(0, N)" style="text;html=1;align=center;verticalAlign=middle;resizable=0;points=[];autosize=1;strokeColor=none;fillColor=none;fontFamily=Helvetica;fontSize=10;fontColor=default;" vertex="1" parent="1">
          <mxGeometry x="216.75" y="843" width="50" height="30" as="geometry" />
        </mxCell>
        <mxCell id="YjwHPkgiHejPP97CCBkF-395" value="(1, 1)" style="text;html=1;align=center;verticalAlign=middle;resizable=0;points=[];autosize=1;strokeColor=none;fillColor=none;fontFamily=Helvetica;fontSize=10;fontColor=default;" vertex="1" parent="1">
          <mxGeometry x="302.25" y="918" width="50" height="30" as="geometry" />
        </mxCell>
        <mxCell id="YjwHPkgiHejPP97CCBkF-396" value="" style="group;pointerEvents=0;align=center;verticalAlign=top;fontFamily=Helvetica;fontSize=12;fontColor=default;fillColor=none;gradientColor=none;" vertex="1" connectable="0" parent="1">
          <mxGeometry x="445.25" y="837" width="5" height="30" as="geometry" />
        </mxCell>
        <mxCell id="YjwHPkgiHejPP97CCBkF-397" value="" style="endArrow=none;html=1;rounded=0;fontFamily=Helvetica;fontSize=12;fontColor=default;entryX=0;entryY=0;entryDx=0;entryDy=0;" edge="1" parent="YjwHPkgiHejPP97CCBkF-396">
          <mxGeometry width="50" height="50" relative="1" as="geometry">
            <mxPoint x="2.5" y="30" as="sourcePoint" />
            <mxPoint x="2.5" y="5" as="targetPoint" />
          </mxGeometry>
        </mxCell>
        <mxCell id="YjwHPkgiHejPP97CCBkF-398" value="" style="ellipse;whiteSpace=wrap;html=1;pointerEvents=0;align=center;verticalAlign=top;fontFamily=Helvetica;fontSize=12;fontColor=default;fillColor=none;gradientColor=none;rotation=-180;" vertex="1" parent="YjwHPkgiHejPP97CCBkF-396">
          <mxGeometry width="5" height="5" as="geometry" />
        </mxCell>
        <mxCell id="YjwHPkgiHejPP97CCBkF-399" value="Data" style="text;html=1;align=center;verticalAlign=middle;resizable=0;points=[];autosize=1;strokeColor=none;fillColor=none;fontFamily=Helvetica;fontSize=10;fontColor=default;" vertex="1" parent="1">
          <mxGeometry x="441.75" y="908" width="40" height="30" as="geometry" />
        </mxCell>
        <mxCell id="YjwHPkgiHejPP97CCBkF-400" value="IDTraffico" style="text;html=1;align=center;verticalAlign=middle;resizable=0;points=[];autosize=1;strokeColor=none;fillColor=none;fontFamily=Helvetica;fontSize=10;fontColor=default;" vertex="1" parent="1">
          <mxGeometry x="146.75" y="886" width="70" height="30" as="geometry" />
        </mxCell>
        <mxCell id="YjwHPkgiHejPP97CCBkF-401" value="" style="group" vertex="1" connectable="0" parent="1">
          <mxGeometry x="457.5" y="885" width="5" height="30" as="geometry" />
        </mxCell>
        <mxCell id="YjwHPkgiHejPP97CCBkF-402" value="" style="endArrow=none;html=1;rounded=0;fontFamily=Helvetica;fontSize=12;fontColor=default;entryX=0;entryY=0;entryDx=0;entryDy=0;" edge="1" parent="YjwHPkgiHejPP97CCBkF-401">
          <mxGeometry width="50" height="50" relative="1" as="geometry">
            <mxPoint x="2.5" as="sourcePoint" />
            <mxPoint x="2.5" y="25" as="targetPoint" />
          </mxGeometry>
        </mxCell>
        <mxCell id="YjwHPkgiHejPP97CCBkF-403" value="" style="ellipse;whiteSpace=wrap;html=1;pointerEvents=0;align=center;verticalAlign=top;fontFamily=Helvetica;fontSize=12;fontColor=default;fillColor=none;gradientColor=none;rotation=0;" vertex="1" parent="YjwHPkgiHejPP97CCBkF-401">
          <mxGeometry y="25" width="5" height="5" as="geometry" />
        </mxCell>
        <mxCell id="YjwHPkgiHejPP97CCBkF-404" value="" style="endArrow=none;html=1;rounded=0;fontFamily=Helvetica;fontSize=12;fontColor=default;exitX=0;exitY=0;exitDx=0;exitDy=0;" edge="1" source="YjwHPkgiHejPP97CCBkF-392" parent="1">
          <mxGeometry width="50" height="50" relative="1" as="geometry">
            <mxPoint x="250.25" y="943" as="sourcePoint" />
            <mxPoint x="80" y="865" as="targetPoint" />
            <Array as="points" />
          </mxGeometry>
        </mxCell>
        <mxCell id="YjwHPkgiHejPP97CCBkF-405" value="CondizioniTraffico" style="text;html=1;align=center;verticalAlign=middle;resizable=0;points=[];autosize=1;strokeColor=none;fillColor=none;fontFamily=Helvetica;fontSize=10;fontColor=default;" vertex="1" parent="1">
          <mxGeometry x="396.75" y="814" width="100" height="30" as="geometry" />
        </mxCell>
        <mxCell id="YjwHPkgiHejPP97CCBkF-406" value="" style="group;pointerEvents=0;align=center;verticalAlign=top;fontFamily=Helvetica;fontSize=12;fontColor=default;fillColor=none;gradientColor=none;" vertex="1" connectable="0" parent="1">
          <mxGeometry x="183.25" y="1025" width="5" height="30" as="geometry" />
        </mxCell>
        <mxCell id="YjwHPkgiHejPP97CCBkF-407" value="" style="endArrow=none;html=1;rounded=0;fontFamily=Helvetica;fontSize=12;fontColor=default;entryX=0;entryY=0;entryDx=0;entryDy=0;" edge="1" parent="YjwHPkgiHejPP97CCBkF-406">
          <mxGeometry width="50" height="50" relative="1" as="geometry">
            <mxPoint x="2.5" y="30" as="sourcePoint" />
            <mxPoint x="2.5" y="5" as="targetPoint" />
          </mxGeometry>
        </mxCell>
        <mxCell id="YjwHPkgiHejPP97CCBkF-408" value="" style="ellipse;whiteSpace=wrap;html=1;pointerEvents=0;align=center;verticalAlign=top;fontFamily=Helvetica;fontSize=12;fillColor=#000000;strokeColor=#000000;fontColor=default;rotation=-180;" vertex="1" parent="YjwHPkgiHejPP97CCBkF-406">
          <mxGeometry width="5" height="5" as="geometry" />
        </mxCell>
        <mxCell id="YjwHPkgiHejPP97CCBkF-409" value="IDServizioPubblico" style="text;html=1;align=center;verticalAlign=middle;resizable=0;points=[];autosize=1;strokeColor=none;fillColor=none;fontFamily=Helvetica;fontSize=10;fontColor=default;" vertex="1" parent="1">
          <mxGeometry x="128.25" y="1004" width="110" height="30" as="geometry" />
        </mxCell>
        <mxCell id="YjwHPkgiHejPP97CCBkF-410" value="" style="group;pointerEvents=0;align=center;verticalAlign=top;fontFamily=Helvetica;fontSize=12;fontColor=default;fillColor=none;gradientColor=none;" vertex="1" connectable="0" parent="1">
          <mxGeometry x="263.25" y="1040" width="5" height="30" as="geometry" />
        </mxCell>
        <mxCell id="YjwHPkgiHejPP97CCBkF-411" value="" style="endArrow=none;html=1;rounded=0;fontFamily=Helvetica;fontSize=12;fontColor=default;entryX=0;entryY=0;entryDx=0;entryDy=0;" edge="1" parent="YjwHPkgiHejPP97CCBkF-410">
          <mxGeometry width="50" height="50" relative="1" as="geometry">
            <mxPoint x="2.5" y="30" as="sourcePoint" />
            <mxPoint x="2.5" y="5" as="targetPoint" />
          </mxGeometry>
        </mxCell>
        <mxCell id="YjwHPkgiHejPP97CCBkF-412" value="" style="ellipse;whiteSpace=wrap;html=1;pointerEvents=0;align=center;verticalAlign=top;fontFamily=Helvetica;fontSize=12;fontColor=default;fillColor=none;gradientColor=none;rotation=-180;" vertex="1" parent="YjwHPkgiHejPP97CCBkF-410">
          <mxGeometry width="5" height="5" as="geometry" />
        </mxCell>
        <mxCell id="YjwHPkgiHejPP97CCBkF-413" value="Stato" style="text;html=1;align=center;verticalAlign=middle;resizable=0;points=[];autosize=1;strokeColor=none;fillColor=none;fontFamily=Helvetica;fontSize=10;fontColor=default;" vertex="1" parent="1">
          <mxGeometry x="245.75" y="1018" width="50" height="30" as="geometry" />
        </mxCell>
        <mxCell id="YjwHPkgiHejPP97CCBkF-414" value="&lt;div style=&quot;padding-top: 3px;&quot;&gt;&lt;span style=&quot;background-color: initial;&quot;&gt;Tragitto&lt;/span&gt;&lt;br&gt;&lt;/div&gt;" style="rhombus;whiteSpace=wrap;html=1;pointerEvents=0;align=center;verticalAlign=top;fontFamily=Helvetica;fontSize=12;fontColor=default;fillColor=none;gradientColor=none;spacingTop=2;" vertex="1" parent="1">
          <mxGeometry x="364.75" y="991" width="127.25" height="38" as="geometry" />
        </mxCell>
        <mxCell id="YjwHPkgiHejPP97CCBkF-415" value="" style="endArrow=none;html=1;rounded=0;fontFamily=Helvetica;fontSize=12;fontColor=default;entryX=0;entryY=1;entryDx=0;entryDy=0;exitX=0.995;exitY=0.566;exitDx=0;exitDy=0;exitPerimeter=0;" edge="1" source="YjwHPkgiHejPP97CCBkF-439" target="YjwHPkgiHejPP97CCBkF-414" parent="1">
          <mxGeometry width="50" height="50" relative="1" as="geometry">
            <mxPoint x="271.75" y="1075" as="sourcePoint" />
            <mxPoint x="301.75" y="1025" as="targetPoint" />
            <Array as="points">
              <mxPoint x="397" y="1073" />
            </Array>
          </mxGeometry>
        </mxCell>
        <mxCell id="YjwHPkgiHejPP97CCBkF-416" value="(0, N)" style="text;html=1;align=center;verticalAlign=middle;resizable=0;points=[];autosize=1;strokeColor=none;fillColor=none;fontFamily=Helvetica;fontSize=10;fontColor=default;" vertex="1" parent="1">
          <mxGeometry x="303.75" y="1050" width="50" height="30" as="geometry" />
        </mxCell>
        <mxCell id="YjwHPkgiHejPP97CCBkF-418" value="" style="group;direction=east;rotation=90;pointerEvents=0;align=center;verticalAlign=top;fontFamily=Helvetica;fontSize=12;fontColor=default;fillColor=none;gradientColor=none;" vertex="1" connectable="0" parent="1">
          <mxGeometry x="173" y="1043" width="5" height="30" as="geometry" />
        </mxCell>
        <mxCell id="YjwHPkgiHejPP97CCBkF-419" value="" style="endArrow=none;html=1;rounded=0;fontFamily=Helvetica;fontSize=12;fontColor=default;entryX=0;entryY=0;entryDx=0;entryDy=0;" edge="1" parent="YjwHPkgiHejPP97CCBkF-418">
          <mxGeometry width="50" height="50" relative="1" as="geometry">
            <mxPoint x="17" y="15" as="sourcePoint" />
            <mxPoint x="-8" y="15" as="targetPoint" />
          </mxGeometry>
        </mxCell>
        <mxCell id="YjwHPkgiHejPP97CCBkF-420" value="" style="ellipse;whiteSpace=wrap;html=1;pointerEvents=0;align=center;verticalAlign=top;fontFamily=Helvetica;fontSize=12;fontColor=default;fillColor=none;gradientColor=none;rotation=90;" vertex="1" parent="YjwHPkgiHejPP97CCBkF-418">
          <mxGeometry x="-13" y="12" width="5" height="5" as="geometry" />
        </mxCell>
        <mxCell id="YjwHPkgiHejPP97CCBkF-421" value="NPosti" style="text;html=1;align=center;verticalAlign=middle;resizable=0;points=[];autosize=1;strokeColor=none;fillColor=none;fontFamily=Helvetica;fontSize=10;fontColor=default;" vertex="1" parent="1">
          <mxGeometry x="117" y="1042" width="50" height="30" as="geometry" />
        </mxCell>
        <mxCell id="YjwHPkgiHejPP97CCBkF-422" value="" style="group;pointerEvents=0;align=center;verticalAlign=top;fontFamily=Helvetica;fontSize=12;fontColor=default;fillColor=none;gradientColor=none;" vertex="1" connectable="0" parent="1">
          <mxGeometry x="232" y="1039" width="5" height="20" as="geometry" />
        </mxCell>
        <mxCell id="YjwHPkgiHejPP97CCBkF-423" value="" style="endArrow=none;html=1;rounded=0;fontFamily=Helvetica;fontSize=12;fontColor=default;entryX=0;entryY=0;entryDx=0;entryDy=0;" edge="1" parent="YjwHPkgiHejPP97CCBkF-422">
          <mxGeometry width="50" height="50" relative="1" as="geometry">
            <mxPoint x="2.5" y="20" as="sourcePoint" />
            <mxPoint x="2.5" y="3.333333333333333" as="targetPoint" />
          </mxGeometry>
        </mxCell>
        <mxCell id="YjwHPkgiHejPP97CCBkF-424" value="" style="ellipse;whiteSpace=wrap;html=1;pointerEvents=0;align=center;verticalAlign=top;fontFamily=Helvetica;fontSize=12;fontColor=default;fillColor=none;gradientColor=none;rotation=-180;" vertex="1" parent="YjwHPkgiHejPP97CCBkF-422">
          <mxGeometry width="5" height="3.333333333333333" as="geometry" />
        </mxCell>
        <mxCell id="YjwHPkgiHejPP97CCBkF-425" value="Tipo" style="text;html=1;align=center;verticalAlign=middle;resizable=0;points=[];autosize=1;strokeColor=none;fillColor=none;fontFamily=Helvetica;fontSize=10;fontColor=default;" vertex="1" parent="1">
          <mxGeometry x="211.5" y="1017" width="40" height="30" as="geometry" />
        </mxCell>
        <mxCell id="YjwHPkgiHejPP97CCBkF-426" value="" style="group;direction=east;rotation=90;pointerEvents=0;align=center;verticalAlign=top;fontFamily=Helvetica;fontSize=12;fontColor=default;fillColor=none;gradientColor=none;" vertex="1" connectable="0" parent="1">
          <mxGeometry x="152" y="1058" width="5" height="30" as="geometry" />
        </mxCell>
        <mxCell id="YjwHPkgiHejPP97CCBkF-427" value="" style="endArrow=none;html=1;rounded=0;fontFamily=Helvetica;fontSize=12;fontColor=default;entryX=0;entryY=0;entryDx=0;entryDy=0;" edge="1" parent="YjwHPkgiHejPP97CCBkF-426">
          <mxGeometry width="50" height="50" relative="1" as="geometry">
            <mxPoint x="17" y="15" as="sourcePoint" />
            <mxPoint x="-8" y="15" as="targetPoint" />
          </mxGeometry>
        </mxCell>
        <mxCell id="YjwHPkgiHejPP97CCBkF-428" value="" style="ellipse;whiteSpace=wrap;html=1;pointerEvents=0;align=center;verticalAlign=top;fontFamily=Helvetica;fontSize=12;fontColor=default;fillColor=none;gradientColor=none;rotation=90;" vertex="1" parent="YjwHPkgiHejPP97CCBkF-426">
          <mxGeometry x="-13" y="12" width="5" height="5" as="geometry" />
        </mxCell>
        <mxCell id="YjwHPkgiHejPP97CCBkF-429" value="" style="endArrow=none;html=1;rounded=0;fontFamily=Helvetica;fontSize=12;fontColor=default;entryX=0;entryY=0.5;entryDx=0;entryDy=0;" edge="1" target="YjwHPkgiHejPP97CCBkF-439" parent="1">
          <mxGeometry width="50" height="50" relative="1" as="geometry">
            <mxPoint x="168" y="1073" as="sourcePoint" />
            <mxPoint x="181.75" y="1073" as="targetPoint" />
          </mxGeometry>
        </mxCell>
        <mxCell id="YjwHPkgiHejPP97CCBkF-430" value="" style="endArrow=none;html=1;rounded=0;fontFamily=Helvetica;fontSize=12;fontColor=default;exitX=1;exitY=0.5;exitDx=0;exitDy=0;" edge="1" source="YjwHPkgiHejPP97CCBkF-414" parent="1">
          <mxGeometry width="50" height="50" relative="1" as="geometry">
            <mxPoint x="492" y="999" as="sourcePoint" />
            <mxPoint x="592" y="1009" as="targetPoint" />
          </mxGeometry>
        </mxCell>
        <mxCell id="YjwHPkgiHejPP97CCBkF-431" value="Utente" style="text;html=1;align=center;verticalAlign=middle;resizable=0;points=[];autosize=1;strokeColor=none;fillColor=none;fontFamily=Helvetica;fontSize=12;fontColor=default;" vertex="1" parent="1">
          <mxGeometry x="582" y="994" width="60" height="30" as="geometry" />
        </mxCell>
        <mxCell id="YjwHPkgiHejPP97CCBkF-432" value="(0, N)" style="text;html=1;align=center;verticalAlign=middle;resizable=0;points=[];autosize=1;strokeColor=none;fillColor=none;fontFamily=Helvetica;fontSize=10;fontColor=default;" vertex="1" parent="1">
          <mxGeometry x="527" y="987" width="50" height="30" as="geometry" />
        </mxCell>
        <mxCell id="YjwHPkgiHejPP97CCBkF-436" value="Ruolo" style="text;html=1;align=center;verticalAlign=middle;resizable=0;points=[];autosize=1;strokeColor=none;fillColor=none;fontFamily=Helvetica;fontSize=10;fontColor=default;" vertex="1" parent="1">
          <mxGeometry x="415.25" y="946" width="50" height="30" as="geometry" />
        </mxCell>
        <mxCell id="YjwHPkgiHejPP97CCBkF-437" value="" style="endArrow=none;html=1;rounded=0;fontFamily=Helvetica;fontSize=12;fontColor=default;exitX=0.275;exitY=0.226;exitDx=0;exitDy=0;exitPerimeter=0;" edge="1" source="YjwHPkgiHejPP97CCBkF-414" parent="1">
          <mxGeometry width="50" height="50" relative="1" as="geometry">
            <mxPoint x="396.56250000000006" y="999.5000000000005" as="sourcePoint" />
            <mxPoint x="81" y="1000" as="targetPoint" />
            <Array as="points">
              <mxPoint x="81.75" y="1000" />
              <mxPoint x="80" y="1000" />
            </Array>
          </mxGeometry>
        </mxCell>
        <mxCell id="YjwHPkgiHejPP97CCBkF-438" value="(0, N)" style="text;html=1;align=center;verticalAlign=middle;resizable=0;points=[];autosize=1;strokeColor=none;fillColor=none;fontFamily=Helvetica;fontSize=10;fontColor=default;" vertex="1" parent="1">
          <mxGeometry x="218.25" y="975" width="50" height="30" as="geometry" />
        </mxCell>
        <mxCell id="YjwHPkgiHejPP97CCBkF-439" value="ServizioPubblico" style="rounded=0;whiteSpace=wrap;html=1;" vertex="1" parent="1">
          <mxGeometry x="185.75" y="1058" width="104.25" height="30" as="geometry" />
        </mxCell>
        <mxCell id="YjwHPkgiHejPP97CCBkF-440" value="Targa" style="text;html=1;align=center;verticalAlign=middle;resizable=0;points=[];autosize=1;strokeColor=none;fillColor=none;fontFamily=Helvetica;fontSize=10;fontColor=default;" vertex="1" parent="1">
          <mxGeometry x="159" y="1100" width="50" height="30" as="geometry" />
        </mxCell>
        <mxCell id="YjwHPkgiHejPP97CCBkF-441" value="Descrizione" style="text;html=1;align=center;verticalAlign=middle;resizable=0;points=[];autosize=1;strokeColor=none;fillColor=none;fontFamily=Helvetica;fontSize=10;fontColor=default;" vertex="1" parent="1">
          <mxGeometry x="71" y="1057" width="80" height="30" as="geometry" />
        </mxCell>
        <mxCell id="YjwHPkgiHejPP97CCBkF-442" value="" style="endArrow=none;html=1;rounded=0;fontFamily=Helvetica;fontSize=12;fontColor=default;exitX=0.561;exitY=0.98;exitDx=0;exitDy=0;exitPerimeter=0;" edge="1" parent="1">
          <mxGeometry width="50" height="50" relative="1" as="geometry">
            <mxPoint x="185.75" y="1046.4" as="sourcePoint" />
            <mxPoint x="185.75" y="1063" as="targetPoint" />
          </mxGeometry>
        </mxCell>
        <mxCell id="YjwHPkgiHejPP97CCBkF-444" value="" style="group" vertex="1" connectable="0" parent="1">
          <mxGeometry x="183" y="1080" width="5" height="30" as="geometry" />
        </mxCell>
        <mxCell id="YjwHPkgiHejPP97CCBkF-445" value="" style="endArrow=none;html=1;rounded=0;fontFamily=Helvetica;fontSize=12;fontColor=default;entryX=0;entryY=0;entryDx=0;entryDy=0;" edge="1" parent="YjwHPkgiHejPP97CCBkF-444">
          <mxGeometry width="50" height="50" relative="1" as="geometry">
            <mxPoint x="2.5" as="sourcePoint" />
            <mxPoint x="2.5" y="25" as="targetPoint" />
          </mxGeometry>
        </mxCell>
        <mxCell id="YjwHPkgiHejPP97CCBkF-446" value="" style="ellipse;whiteSpace=wrap;html=1;pointerEvents=0;align=center;verticalAlign=top;fontFamily=Helvetica;fontSize=12;fontColor=default;fillColor=none;gradientColor=none;rotation=0;" vertex="1" parent="YjwHPkgiHejPP97CCBkF-444">
          <mxGeometry y="25" width="5" height="5" as="geometry" />
        </mxCell>
        <mxCell id="YjwHPkgiHejPP97CCBkF-447" value="Fermata" style="rounded=0;whiteSpace=wrap;html=1;pointerEvents=0;align=center;verticalAlign=middle;fontFamily=Helvetica;fontSize=12;fontColor=default;fillColor=none;gradientColor=none;spacingTop=0;" vertex="1" parent="1">
          <mxGeometry x="445.25" y="1085" width="94.75" height="35" as="geometry" />
        </mxCell>
        <mxCell id="YjwHPkgiHejPP97CCBkF-448" value="" style="group;pointerEvents=0;align=center;verticalAlign=top;fontFamily=Helvetica;fontSize=12;fontColor=default;fillColor=none;gradientColor=none;" vertex="1" connectable="0" parent="1">
          <mxGeometry x="491" y="1055" width="5" height="30" as="geometry" />
        </mxCell>
        <mxCell id="YjwHPkgiHejPP97CCBkF-449" value="" style="endArrow=none;html=1;rounded=0;fontFamily=Helvetica;fontSize=12;fontColor=default;entryX=0;entryY=0;entryDx=0;entryDy=0;" edge="1" parent="YjwHPkgiHejPP97CCBkF-448">
          <mxGeometry width="50" height="50" relative="1" as="geometry">
            <mxPoint x="2.5" y="30" as="sourcePoint" />
            <mxPoint x="2.5" y="5" as="targetPoint" />
          </mxGeometry>
        </mxCell>
        <mxCell id="YjwHPkgiHejPP97CCBkF-450" value="" style="ellipse;whiteSpace=wrap;html=1;pointerEvents=0;align=center;verticalAlign=top;fontFamily=Helvetica;fontSize=12;fillColor=#000000;strokeColor=#000000;fontColor=default;rotation=-180;" vertex="1" parent="YjwHPkgiHejPP97CCBkF-448">
          <mxGeometry width="5" height="5" as="geometry" />
        </mxCell>
        <mxCell id="YjwHPkgiHejPP97CCBkF-451" value="IDFermata" style="text;html=1;align=center;verticalAlign=middle;resizable=0;points=[];autosize=1;strokeColor=none;fillColor=none;fontFamily=Helvetica;fontSize=10;fontColor=default;" vertex="1" parent="1">
          <mxGeometry x="463" y="1033" width="70" height="30" as="geometry" />
        </mxCell>
        <mxCell id="YjwHPkgiHejPP97CCBkF-452" value="" style="group;direction=east;rotation=-90;pointerEvents=0;align=center;verticalAlign=top;fontFamily=Helvetica;fontSize=12;fontColor=default;fillColor=none;gradientColor=none;" vertex="1" connectable="0" parent="1">
          <mxGeometry x="550" y="1070" width="5" height="30" as="geometry" />
        </mxCell>
        <mxCell id="YjwHPkgiHejPP97CCBkF-453" value="" style="endArrow=none;html=1;rounded=0;fontFamily=Helvetica;fontSize=12;fontColor=default;entryX=0;entryY=0;entryDx=0;entryDy=0;" edge="1" parent="YjwHPkgiHejPP97CCBkF-452">
          <mxGeometry width="50" height="50" relative="1" as="geometry">
            <mxPoint x="-12" y="15" as="sourcePoint" />
            <mxPoint x="13" y="15" as="targetPoint" />
          </mxGeometry>
        </mxCell>
        <mxCell id="YjwHPkgiHejPP97CCBkF-454" value="" style="ellipse;whiteSpace=wrap;html=1;pointerEvents=0;align=center;verticalAlign=top;fontFamily=Helvetica;fontSize=12;fontColor=default;fillColor=none;gradientColor=none;rotation=-90;" vertex="1" parent="YjwHPkgiHejPP97CCBkF-452">
          <mxGeometry x="13" y="13" width="5" height="5" as="geometry" />
        </mxCell>
        <mxCell id="YjwHPkgiHejPP97CCBkF-455" value="Nome" style="text;html=1;align=center;verticalAlign=middle;resizable=0;points=[];autosize=1;strokeColor=none;fillColor=none;fontFamily=Helvetica;fontSize=10;fontColor=default;" vertex="1" parent="1">
          <mxGeometry x="562" y="1070" width="50" height="30" as="geometry" />
        </mxCell>
        <mxCell id="YjwHPkgiHejPP97CCBkF-456" value="" style="group;rotation=90;" vertex="1" connectable="0" parent="1">
          <mxGeometry x="552" y="1104" width="5" height="30" as="geometry" />
        </mxCell>
        <mxCell id="YjwHPkgiHejPP97CCBkF-457" value="" style="endArrow=none;html=1;rounded=0;fontFamily=Helvetica;fontSize=12;fontColor=default;entryX=0;entryY=0;entryDx=0;entryDy=0;" edge="1" parent="YjwHPkgiHejPP97CCBkF-456">
          <mxGeometry width="50" height="50" relative="1" as="geometry">
            <mxPoint x="-12" y="15" as="sourcePoint" />
            <mxPoint x="13" y="15" as="targetPoint" />
          </mxGeometry>
        </mxCell>
        <mxCell id="YjwHPkgiHejPP97CCBkF-458" value="" style="whiteSpace=wrap;html=1;aspect=fixed;pointerEvents=0;align=center;verticalAlign=top;fontFamily=Helvetica;fontSize=12;fillColor=#000000;strokeColor=#000000;fillStyle=auto;rotation=90;" vertex="1" parent="YjwHPkgiHejPP97CCBkF-456">
          <mxGeometry x="13" y="13" width="5" height="5" as="geometry" />
        </mxCell>
        <mxCell id="YjwHPkgiHejPP97CCBkF-459" value="Posizione" style="text;html=1;align=center;verticalAlign=middle;resizable=0;points=[];autosize=1;strokeColor=none;fillColor=none;fontFamily=Helvetica;fontSize=10;fontColor=default;" vertex="1" parent="1">
          <mxGeometry x="559" y="1103" width="70" height="30" as="geometry" />
        </mxCell>
        <mxCell id="YjwHPkgiHejPP97CCBkF-460" value="" style="endArrow=none;html=1;rounded=0;fontFamily=Helvetica;fontSize=12;fontColor=default;entryX=0.633;entryY=0.807;entryDx=0;entryDy=0;entryPerimeter=0;exitX=0;exitY=0;exitDx=0;exitDy=0;" edge="1" parent="1">
          <mxGeometry width="50" height="50" relative="1" as="geometry">
            <mxPoint x="445.25" y="1087" as="sourcePoint" />
            <mxPoint x="445.29925000000003" y="1023.6659999999997" as="targetPoint" />
          </mxGeometry>
        </mxCell>
        <mxCell id="YjwHPkgiHejPP97CCBkF-461" value="" style="endArrow=classic;html=1;rounded=0;fontFamily=Helvetica;fontSize=12;fontColor=default;exitX=0.995;exitY=0.61;exitDx=0;exitDy=0;exitPerimeter=0;" edge="1" parent="1" source="YjwHPkgiHejPP97CCBkF-431">
          <mxGeometry width="50" height="50" relative="1" as="geometry">
            <mxPoint x="570" y="1030" as="sourcePoint" />
            <mxPoint x="670" y="1010" as="targetPoint" />
          </mxGeometry>
        </mxCell>
        <mxCell id="YjwHPkgiHejPP97CCBkF-462" value="Operatore" style="text;html=1;align=center;verticalAlign=middle;resizable=0;points=[];autosize=1;strokeColor=none;fillColor=none;fontFamily=Helvetica;fontSize=12;fontColor=default;" vertex="1" parent="1">
          <mxGeometry x="660" y="995" width="80" height="30" as="geometry" />
        </mxCell>
        <mxCell id="YjwHPkgiHejPP97CCBkF-463" value="SOLO" style="text;html=1;align=center;verticalAlign=middle;whiteSpace=wrap;rounded=0;fontFamily=Helvetica;fontSize=12;fontColor=default;" vertex="1" parent="1">
          <mxGeometry x="629" y="976" width="60" height="30" as="geometry" />
        </mxCell>
        <mxCell id="YjwHPkgiHejPP97CCBkF-464" value="(0, N)" style="text;html=1;align=center;verticalAlign=middle;resizable=0;points=[];autosize=1;strokeColor=none;fillColor=none;fontFamily=Helvetica;fontSize=10;fontColor=default;" vertex="1" parent="1">
          <mxGeometry x="420" y="1055" width="50" height="30" as="geometry" />
        </mxCell>
      </root>
    </mxGraphModel>
  </diagram>
</mxfile>
